%TF.GenerationSoftware,KiCad,Pcbnew,7.0.10*%
%TF.CreationDate,2024-10-12T21:33:44+02:00*%
%TF.ProjectId,Retro_Bubble_LED_Watch,52657472-6f5f-4427-9562-626c655f4c45,1.1*%
%TF.SameCoordinates,Original*%
%TF.FileFunction,Legend,Bot*%
%TF.FilePolarity,Positive*%
%FSLAX46Y46*%
G04 Gerber Fmt 4.6, Leading zero omitted, Abs format (unit mm)*
G04 Created by KiCad (PCBNEW 7.0.10) date 2024-10-12 21:33:44*
%MOMM*%
%LPD*%
G01*
G04 APERTURE LIST*
%ADD10C,0.200000*%
%ADD11C,0.150000*%
%ADD12C,0.120000*%
G04 APERTURE END LIST*
D10*
X139550000Y-107250000D02*
G75*
G03*
X135950000Y-107250000I-1800000J0D01*
G01*
X135950000Y-107250000D02*
G75*
G03*
X139550000Y-107250000I1800000J0D01*
G01*
X165550000Y-107250000D02*
G75*
G03*
X161950000Y-107250000I-1800000J0D01*
G01*
X161950000Y-107250000D02*
G75*
G03*
X165550000Y-107250000I1800000J0D01*
G01*
X152550000Y-84750000D02*
G75*
G03*
X148950000Y-84750000I-1800000J0D01*
G01*
X148950000Y-84750000D02*
G75*
G03*
X152550000Y-84750000I1800000J0D01*
G01*
D11*
X148210839Y-85102200D02*
X148067982Y-85149819D01*
X148067982Y-85149819D02*
X147829887Y-85149819D01*
X147829887Y-85149819D02*
X147734649Y-85102200D01*
X147734649Y-85102200D02*
X147687030Y-85054580D01*
X147687030Y-85054580D02*
X147639411Y-84959342D01*
X147639411Y-84959342D02*
X147639411Y-84864104D01*
X147639411Y-84864104D02*
X147687030Y-84768866D01*
X147687030Y-84768866D02*
X147734649Y-84721247D01*
X147734649Y-84721247D02*
X147829887Y-84673628D01*
X147829887Y-84673628D02*
X148020363Y-84626009D01*
X148020363Y-84626009D02*
X148115601Y-84578390D01*
X148115601Y-84578390D02*
X148163220Y-84530771D01*
X148163220Y-84530771D02*
X148210839Y-84435533D01*
X148210839Y-84435533D02*
X148210839Y-84340295D01*
X148210839Y-84340295D02*
X148163220Y-84245057D01*
X148163220Y-84245057D02*
X148115601Y-84197438D01*
X148115601Y-84197438D02*
X148020363Y-84149819D01*
X148020363Y-84149819D02*
X147782268Y-84149819D01*
X147782268Y-84149819D02*
X147639411Y-84197438D01*
X147306077Y-84483152D02*
X146782268Y-84483152D01*
X146782268Y-84483152D02*
X147306077Y-85149819D01*
X147306077Y-85149819D02*
X146782268Y-85149819D01*
X146496553Y-84483152D02*
X146258458Y-85149819D01*
X146020363Y-84483152D02*
X146258458Y-85149819D01*
X146258458Y-85149819D02*
X146353696Y-85387914D01*
X146353696Y-85387914D02*
X146401315Y-85435533D01*
X146401315Y-85435533D02*
X146496553Y-85483152D01*
X145639410Y-85149819D02*
X145639410Y-84483152D01*
X145639410Y-84578390D02*
X145591791Y-84530771D01*
X145591791Y-84530771D02*
X145496553Y-84483152D01*
X145496553Y-84483152D02*
X145353696Y-84483152D01*
X145353696Y-84483152D02*
X145258458Y-84530771D01*
X145258458Y-84530771D02*
X145210839Y-84626009D01*
X145210839Y-84626009D02*
X145210839Y-85149819D01*
X145210839Y-84626009D02*
X145163220Y-84530771D01*
X145163220Y-84530771D02*
X145067982Y-84483152D01*
X145067982Y-84483152D02*
X144925125Y-84483152D01*
X144925125Y-84483152D02*
X144829886Y-84530771D01*
X144829886Y-84530771D02*
X144782267Y-84626009D01*
X144782267Y-84626009D02*
X144782267Y-85149819D01*
X144163220Y-85149819D02*
X144258458Y-85102200D01*
X144258458Y-85102200D02*
X144306077Y-85054580D01*
X144306077Y-85054580D02*
X144353696Y-84959342D01*
X144353696Y-84959342D02*
X144353696Y-84673628D01*
X144353696Y-84673628D02*
X144306077Y-84578390D01*
X144306077Y-84578390D02*
X144258458Y-84530771D01*
X144258458Y-84530771D02*
X144163220Y-84483152D01*
X144163220Y-84483152D02*
X144020363Y-84483152D01*
X144020363Y-84483152D02*
X143925125Y-84530771D01*
X143925125Y-84530771D02*
X143877506Y-84578390D01*
X143877506Y-84578390D02*
X143829887Y-84673628D01*
X143829887Y-84673628D02*
X143829887Y-84959342D01*
X143829887Y-84959342D02*
X143877506Y-85054580D01*
X143877506Y-85054580D02*
X143925125Y-85102200D01*
X143925125Y-85102200D02*
X144020363Y-85149819D01*
X144020363Y-85149819D02*
X144163220Y-85149819D01*
X143401315Y-84483152D02*
X143401315Y-85149819D01*
X143401315Y-84578390D02*
X143353696Y-84530771D01*
X143353696Y-84530771D02*
X143258458Y-84483152D01*
X143258458Y-84483152D02*
X143115601Y-84483152D01*
X143115601Y-84483152D02*
X143020363Y-84530771D01*
X143020363Y-84530771D02*
X142972744Y-84626009D01*
X142972744Y-84626009D02*
X142972744Y-85149819D01*
X147829887Y-86236009D02*
X147687030Y-86283628D01*
X147687030Y-86283628D02*
X147639411Y-86331247D01*
X147639411Y-86331247D02*
X147591792Y-86426485D01*
X147591792Y-86426485D02*
X147591792Y-86569342D01*
X147591792Y-86569342D02*
X147639411Y-86664580D01*
X147639411Y-86664580D02*
X147687030Y-86712200D01*
X147687030Y-86712200D02*
X147782268Y-86759819D01*
X147782268Y-86759819D02*
X148163220Y-86759819D01*
X148163220Y-86759819D02*
X148163220Y-85759819D01*
X148163220Y-85759819D02*
X147829887Y-85759819D01*
X147829887Y-85759819D02*
X147734649Y-85807438D01*
X147734649Y-85807438D02*
X147687030Y-85855057D01*
X147687030Y-85855057D02*
X147639411Y-85950295D01*
X147639411Y-85950295D02*
X147639411Y-86045533D01*
X147639411Y-86045533D02*
X147687030Y-86140771D01*
X147687030Y-86140771D02*
X147734649Y-86188390D01*
X147734649Y-86188390D02*
X147829887Y-86236009D01*
X147829887Y-86236009D02*
X148163220Y-86236009D01*
X146734649Y-86759819D02*
X146734649Y-86236009D01*
X146734649Y-86236009D02*
X146782268Y-86140771D01*
X146782268Y-86140771D02*
X146877506Y-86093152D01*
X146877506Y-86093152D02*
X147067982Y-86093152D01*
X147067982Y-86093152D02*
X147163220Y-86140771D01*
X146734649Y-86712200D02*
X146829887Y-86759819D01*
X146829887Y-86759819D02*
X147067982Y-86759819D01*
X147067982Y-86759819D02*
X147163220Y-86712200D01*
X147163220Y-86712200D02*
X147210839Y-86616961D01*
X147210839Y-86616961D02*
X147210839Y-86521723D01*
X147210839Y-86521723D02*
X147163220Y-86426485D01*
X147163220Y-86426485D02*
X147067982Y-86378866D01*
X147067982Y-86378866D02*
X146829887Y-86378866D01*
X146829887Y-86378866D02*
X146734649Y-86331247D01*
X146258458Y-86759819D02*
X146258458Y-86093152D01*
X146258458Y-86283628D02*
X146210839Y-86188390D01*
X146210839Y-86188390D02*
X146163220Y-86140771D01*
X146163220Y-86140771D02*
X146067982Y-86093152D01*
X146067982Y-86093152D02*
X145972744Y-86093152D01*
X145782267Y-86093152D02*
X145401315Y-86093152D01*
X145639410Y-85759819D02*
X145639410Y-86616961D01*
X145639410Y-86616961D02*
X145591791Y-86712200D01*
X145591791Y-86712200D02*
X145496553Y-86759819D01*
X145496553Y-86759819D02*
X145401315Y-86759819D01*
X144925124Y-86759819D02*
X145020362Y-86712200D01*
X145020362Y-86712200D02*
X145067981Y-86664580D01*
X145067981Y-86664580D02*
X145115600Y-86569342D01*
X145115600Y-86569342D02*
X145115600Y-86283628D01*
X145115600Y-86283628D02*
X145067981Y-86188390D01*
X145067981Y-86188390D02*
X145020362Y-86140771D01*
X145020362Y-86140771D02*
X144925124Y-86093152D01*
X144925124Y-86093152D02*
X144782267Y-86093152D01*
X144782267Y-86093152D02*
X144687029Y-86140771D01*
X144687029Y-86140771D02*
X144639410Y-86188390D01*
X144639410Y-86188390D02*
X144591791Y-86283628D01*
X144591791Y-86283628D02*
X144591791Y-86569342D01*
X144591791Y-86569342D02*
X144639410Y-86664580D01*
X144639410Y-86664580D02*
X144687029Y-86712200D01*
X144687029Y-86712200D02*
X144782267Y-86759819D01*
X144782267Y-86759819D02*
X144925124Y-86759819D01*
X144210838Y-86712200D02*
X144115600Y-86759819D01*
X144115600Y-86759819D02*
X143925124Y-86759819D01*
X143925124Y-86759819D02*
X143829886Y-86712200D01*
X143829886Y-86712200D02*
X143782267Y-86616961D01*
X143782267Y-86616961D02*
X143782267Y-86569342D01*
X143782267Y-86569342D02*
X143829886Y-86474104D01*
X143829886Y-86474104D02*
X143925124Y-86426485D01*
X143925124Y-86426485D02*
X144067981Y-86426485D01*
X144067981Y-86426485D02*
X144163219Y-86378866D01*
X144163219Y-86378866D02*
X144210838Y-86283628D01*
X144210838Y-86283628D02*
X144210838Y-86236009D01*
X144210838Y-86236009D02*
X144163219Y-86140771D01*
X144163219Y-86140771D02*
X144067981Y-86093152D01*
X144067981Y-86093152D02*
X143925124Y-86093152D01*
X143925124Y-86093152D02*
X143829886Y-86140771D01*
X143353695Y-86759819D02*
X143353695Y-86093152D01*
X143353695Y-85759819D02*
X143401314Y-85807438D01*
X143401314Y-85807438D02*
X143353695Y-85855057D01*
X143353695Y-85855057D02*
X143306076Y-85807438D01*
X143306076Y-85807438D02*
X143353695Y-85759819D01*
X143353695Y-85759819D02*
X143353695Y-85855057D01*
X142877505Y-86759819D02*
X142877505Y-85759819D01*
X142782267Y-86378866D02*
X142496553Y-86759819D01*
X142496553Y-86093152D02*
X142877505Y-86474104D01*
X148210839Y-87465057D02*
X148163220Y-87417438D01*
X148163220Y-87417438D02*
X148067982Y-87369819D01*
X148067982Y-87369819D02*
X147829887Y-87369819D01*
X147829887Y-87369819D02*
X147734649Y-87417438D01*
X147734649Y-87417438D02*
X147687030Y-87465057D01*
X147687030Y-87465057D02*
X147639411Y-87560295D01*
X147639411Y-87560295D02*
X147639411Y-87655533D01*
X147639411Y-87655533D02*
X147687030Y-87798390D01*
X147687030Y-87798390D02*
X148258458Y-88369819D01*
X148258458Y-88369819D02*
X147639411Y-88369819D01*
X147020363Y-87369819D02*
X146925125Y-87369819D01*
X146925125Y-87369819D02*
X146829887Y-87417438D01*
X146829887Y-87417438D02*
X146782268Y-87465057D01*
X146782268Y-87465057D02*
X146734649Y-87560295D01*
X146734649Y-87560295D02*
X146687030Y-87750771D01*
X146687030Y-87750771D02*
X146687030Y-87988866D01*
X146687030Y-87988866D02*
X146734649Y-88179342D01*
X146734649Y-88179342D02*
X146782268Y-88274580D01*
X146782268Y-88274580D02*
X146829887Y-88322200D01*
X146829887Y-88322200D02*
X146925125Y-88369819D01*
X146925125Y-88369819D02*
X147020363Y-88369819D01*
X147020363Y-88369819D02*
X147115601Y-88322200D01*
X147115601Y-88322200D02*
X147163220Y-88274580D01*
X147163220Y-88274580D02*
X147210839Y-88179342D01*
X147210839Y-88179342D02*
X147258458Y-87988866D01*
X147258458Y-87988866D02*
X147258458Y-87750771D01*
X147258458Y-87750771D02*
X147210839Y-87560295D01*
X147210839Y-87560295D02*
X147163220Y-87465057D01*
X147163220Y-87465057D02*
X147115601Y-87417438D01*
X147115601Y-87417438D02*
X147020363Y-87369819D01*
X146306077Y-87465057D02*
X146258458Y-87417438D01*
X146258458Y-87417438D02*
X146163220Y-87369819D01*
X146163220Y-87369819D02*
X145925125Y-87369819D01*
X145925125Y-87369819D02*
X145829887Y-87417438D01*
X145829887Y-87417438D02*
X145782268Y-87465057D01*
X145782268Y-87465057D02*
X145734649Y-87560295D01*
X145734649Y-87560295D02*
X145734649Y-87655533D01*
X145734649Y-87655533D02*
X145782268Y-87798390D01*
X145782268Y-87798390D02*
X146353696Y-88369819D01*
X146353696Y-88369819D02*
X145734649Y-88369819D01*
X144877506Y-87703152D02*
X144877506Y-88369819D01*
X145115601Y-87322200D02*
X145353696Y-88036485D01*
X145353696Y-88036485D02*
X144734649Y-88036485D01*
X157591792Y-87869819D02*
X157925125Y-87393628D01*
X158163220Y-87869819D02*
X158163220Y-86869819D01*
X158163220Y-86869819D02*
X157782268Y-86869819D01*
X157782268Y-86869819D02*
X157687030Y-86917438D01*
X157687030Y-86917438D02*
X157639411Y-86965057D01*
X157639411Y-86965057D02*
X157591792Y-87060295D01*
X157591792Y-87060295D02*
X157591792Y-87203152D01*
X157591792Y-87203152D02*
X157639411Y-87298390D01*
X157639411Y-87298390D02*
X157687030Y-87346009D01*
X157687030Y-87346009D02*
X157782268Y-87393628D01*
X157782268Y-87393628D02*
X158163220Y-87393628D01*
X156782268Y-87822200D02*
X156877506Y-87869819D01*
X156877506Y-87869819D02*
X157067982Y-87869819D01*
X157067982Y-87869819D02*
X157163220Y-87822200D01*
X157163220Y-87822200D02*
X157210839Y-87726961D01*
X157210839Y-87726961D02*
X157210839Y-87346009D01*
X157210839Y-87346009D02*
X157163220Y-87250771D01*
X157163220Y-87250771D02*
X157067982Y-87203152D01*
X157067982Y-87203152D02*
X156877506Y-87203152D01*
X156877506Y-87203152D02*
X156782268Y-87250771D01*
X156782268Y-87250771D02*
X156734649Y-87346009D01*
X156734649Y-87346009D02*
X156734649Y-87441247D01*
X156734649Y-87441247D02*
X157210839Y-87536485D01*
X156401315Y-87203152D02*
X156163220Y-87869819D01*
X156163220Y-87869819D02*
X155925125Y-87203152D01*
X155544172Y-87774580D02*
X155496553Y-87822200D01*
X155496553Y-87822200D02*
X155544172Y-87869819D01*
X155544172Y-87869819D02*
X155591791Y-87822200D01*
X155591791Y-87822200D02*
X155544172Y-87774580D01*
X155544172Y-87774580D02*
X155544172Y-87869819D01*
X153782268Y-87869819D02*
X154353696Y-87869819D01*
X154067982Y-87869819D02*
X154067982Y-86869819D01*
X154067982Y-86869819D02*
X154163220Y-87012676D01*
X154163220Y-87012676D02*
X154258458Y-87107914D01*
X154258458Y-87107914D02*
X154353696Y-87155533D01*
X153353696Y-87774580D02*
X153306077Y-87822200D01*
X153306077Y-87822200D02*
X153353696Y-87869819D01*
X153353696Y-87869819D02*
X153401315Y-87822200D01*
X153401315Y-87822200D02*
X153353696Y-87774580D01*
X153353696Y-87774580D02*
X153353696Y-87869819D01*
X152353697Y-87869819D02*
X152925125Y-87869819D01*
X152639411Y-87869819D02*
X152639411Y-86869819D01*
X152639411Y-86869819D02*
X152734649Y-87012676D01*
X152734649Y-87012676D02*
X152829887Y-87107914D01*
X152829887Y-87107914D02*
X152925125Y-87155533D01*
D12*
%TO.C,J1*%
X138061505Y-110659566D02*
X138643079Y-110077992D01*
X139811594Y-112409656D02*
X138061505Y-110659566D01*
X139811594Y-112409656D02*
X140212191Y-112009059D01*
X140348995Y-112947057D02*
X140886396Y-113484458D01*
X140886396Y-113484458D02*
X141685427Y-112685427D01*
X139077992Y-109643079D02*
X139541105Y-109179966D01*
X141009059Y-111212191D02*
X141110216Y-111111033D01*
X141185836Y-111111033D02*
X141286993Y-111212191D01*
X142083861Y-112009059D02*
X142176866Y-112102064D01*
X142176866Y-112102064D02*
X142320034Y-111958896D01*
X139976018Y-108745053D02*
X140557592Y-108163479D01*
X142754947Y-111523983D02*
X143336521Y-110942409D01*
X143336521Y-110942409D02*
X140557592Y-108163479D01*
%TO.C,BT1*%
X165200000Y-101350000D02*
X165200000Y-99800000D01*
X165200000Y-93650000D02*
X165200000Y-95200000D01*
X163650000Y-102500000D02*
X163650000Y-104500000D01*
X162650000Y-103500000D02*
X164650000Y-103500000D01*
X162000000Y-104050000D02*
X162000000Y-101350000D01*
X162000000Y-101350000D02*
X165200000Y-101350000D01*
X162000000Y-93650000D02*
X165200000Y-93650000D01*
X162000000Y-89150000D02*
X162000000Y-93650000D01*
X162000000Y-89150000D02*
X139300000Y-89150000D01*
X160200000Y-105850000D02*
X162000000Y-104050000D01*
X139300000Y-105850000D02*
X160200000Y-105850000D01*
X139300000Y-105850000D02*
X139300000Y-101350000D01*
X139300000Y-101350000D02*
X136100000Y-101350000D01*
X139300000Y-93650000D02*
X136100000Y-93650000D01*
X139300000Y-89150000D02*
X139300000Y-93650000D01*
X136100000Y-101350000D02*
X136100000Y-99800000D01*
X136100000Y-93650000D02*
X136100000Y-95200000D01*
%TD*%
M02*
