%TF.GenerationSoftware,KiCad,Pcbnew,7.0.10*%
%TF.CreationDate,2024-10-12T21:33:54+02:00*%
%TF.ProjectId,Retro_Bubble_LED_Watch,52657472-6f5f-4427-9562-626c655f4c45,1.1*%
%TF.SameCoordinates,Original*%
%TF.FileFunction,Plated,1,2,PTH,Drill*%
%TF.FilePolarity,Positive*%
%FSLAX46Y46*%
G04 Gerber Fmt 4.6, Leading zero omitted, Abs format (unit mm)*
G04 Created by KiCad (PCBNEW 7.0.10) date 2024-10-12 21:33:54*
%MOMM*%
%LPD*%
G01*
G04 APERTURE LIST*
%TA.AperFunction,ViaDrill*%
%ADD10C,0.400000*%
%TD*%
%TA.AperFunction,ComponentDrill*%
%ADD11C,0.650000*%
%TD*%
G04 APERTURE END LIST*
D10*
X135382000Y-94742000D03*
X135382000Y-100330000D03*
X138250000Y-104000000D03*
X138430000Y-95250000D03*
X138430000Y-96266000D03*
X138430000Y-97282000D03*
X138684000Y-93980000D03*
X139750000Y-104500000D03*
X140750000Y-104250000D03*
X140750000Y-105250000D03*
X142000000Y-109474000D03*
X144526000Y-87122000D03*
X144526000Y-89662000D03*
X144526000Y-92202000D03*
X145000000Y-97750000D03*
X145000000Y-113500000D03*
X147000000Y-115750000D03*
X148000000Y-108712000D03*
X148000000Y-112000000D03*
X148000000Y-113500000D03*
X148750000Y-114250000D03*
X148844000Y-108712000D03*
X149550000Y-113500000D03*
X149860000Y-110744000D03*
X150000000Y-108750000D03*
X150350000Y-114100000D03*
X150500000Y-113000000D03*
X150750000Y-110750000D03*
X151125000Y-108625000D03*
X151638000Y-110744000D03*
X151950000Y-113500000D03*
X152000000Y-100750000D03*
X152750000Y-108750000D03*
X152750000Y-110250000D03*
X152750000Y-112750000D03*
X152908000Y-90170000D03*
X153250000Y-91750000D03*
X153500000Y-109500000D03*
X153550000Y-113500000D03*
X154500000Y-107250000D03*
X155250000Y-97750000D03*
X156500000Y-85250000D03*
X156500000Y-108000000D03*
X157250000Y-89250000D03*
X158242000Y-113750000D03*
X158750000Y-108250000D03*
X158750000Y-110998000D03*
X159500000Y-106750000D03*
X159500000Y-110250000D03*
X160250000Y-104250000D03*
X160500000Y-92750000D03*
X162750000Y-97250000D03*
X164500000Y-94500000D03*
X165750000Y-100000000D03*
X165750000Y-102750000D03*
D11*
%TO.C,J1*%
X139351975Y-110351975D03*
X140250000Y-109453949D03*
X140250000Y-111250000D03*
X141148026Y-110351975D03*
X141148026Y-112148026D03*
X142046052Y-111250000D03*
M02*
