%TF.GenerationSoftware,KiCad,Pcbnew,7.0.10*%
%TF.CreationDate,2025-02-13T20:32:26+01:00*%
%TF.ProjectId,Retro_Bubble_LED_Watch,52657472-6f5f-4427-9562-626c655f4c45,1.1*%
%TF.SameCoordinates,Original*%
%TF.FileFunction,Copper,L2,Bot*%
%TF.FilePolarity,Positive*%
%FSLAX46Y46*%
G04 Gerber Fmt 4.6, Leading zero omitted, Abs format (unit mm)*
G04 Created by KiCad (PCBNEW 7.0.10) date 2025-02-13 20:32:26*
%MOMM*%
%LPD*%
G01*
G04 APERTURE LIST*
G04 Aperture macros list*
%AMHorizOval*
0 Thick line with rounded ends*
0 $1 width*
0 $2 $3 position (X,Y) of the first rounded end (center of the circle)*
0 $4 $5 position (X,Y) of the second rounded end (center of the circle)*
0 Add line between two ends*
20,1,$1,$2,$3,$4,$5,0*
0 Add two circle primitives to create the rounded ends*
1,1,$1,$2,$3*
1,1,$1,$4,$5*%
%AMRotRect*
0 Rectangle, with rotation*
0 The origin of the aperture is its center*
0 $1 length*
0 $2 width*
0 $3 Rotation angle, in degrees counterclockwise*
0 Add horizontal line*
21,1,$1,$2,0,0,$3*%
G04 Aperture macros list end*
%TA.AperFunction,ComponentPad*%
%ADD10RotRect,1.000000X1.000000X45.000000*%
%TD*%
%TA.AperFunction,ComponentPad*%
%ADD11HorizOval,1.000000X0.000000X0.000000X0.000000X0.000000X0*%
%TD*%
%TA.AperFunction,SMDPad,CuDef*%
%ADD12R,2.600000X3.600000*%
%TD*%
%TA.AperFunction,ViaPad*%
%ADD13C,0.800000*%
%TD*%
%TA.AperFunction,Conductor*%
%ADD14C,0.250000*%
%TD*%
G04 APERTURE END LIST*
D10*
%TO.P,J1,1,Pin_1*%
%TO.N,GND*%
X141148026Y-112148026D03*
D11*
%TO.P,J1,2,Pin_2*%
%TO.N,/~{RESET}*%
X142046052Y-111250000D03*
%TO.P,J1,3,Pin_3*%
%TO.N,/MOSI*%
X140250000Y-111250000D03*
%TO.P,J1,4,Pin_4*%
%TO.N,/SCK*%
X141148026Y-110351975D03*
%TO.P,J1,5,Pin_5*%
%TO.N,+BATT*%
X139351975Y-110351975D03*
%TO.P,J1,6,Pin_6*%
%TO.N,/MISO*%
X140250000Y-109453949D03*
%TD*%
D12*
%TO.P,BT1,1,+*%
%TO.N,+BATT*%
X165300000Y-97500000D03*
%TO.P,BT1,2,-*%
%TO.N,GND*%
X136000000Y-97500000D03*
%TD*%
D13*
%TO.N,Net-(DS1-CA1)*%
X152000000Y-100750000D03*
X151125000Y-108625000D03*
%TO.N,Net-(DS1-CA4)*%
X153500000Y-109500000D03*
X155250000Y-97750000D03*
%TO.N,Net-(DS1-CA2)*%
X145000000Y-97750000D03*
X150000000Y-108750000D03*
%TO.N,GND*%
X145000000Y-113500000D03*
X138430000Y-95250000D03*
X151638000Y-110744000D03*
X148844000Y-108712000D03*
X144526000Y-89662000D03*
X148000000Y-108712000D03*
X135382000Y-94742000D03*
X138430000Y-97282000D03*
X144526000Y-92202000D03*
X144526000Y-87122000D03*
X135382000Y-100330000D03*
X152908000Y-90170000D03*
X149860000Y-110744000D03*
X138430000Y-96266000D03*
X150750000Y-110750000D03*
X165750000Y-102750000D03*
%TO.N,+BATT*%
X165750000Y-100000000D03*
X157250000Y-89250000D03*
X164500000Y-94500000D03*
X142000000Y-109474000D03*
%TO.N,/~{RESET}*%
X150500000Y-113000000D03*
%TO.N,/SDA*%
X162750000Y-97250000D03*
X149550000Y-113500000D03*
%TO.N,/SCL*%
X160500000Y-92750000D03*
X150350000Y-114100000D03*
%TO.N,/MODE_BUTTON*%
X148000000Y-113500000D03*
X158242000Y-113750000D03*
%TO.N,/UP_BUTTON*%
X147000000Y-115750000D03*
X156500000Y-85250000D03*
%TO.N,/~{INTA}*%
X148750000Y-114250000D03*
X153250000Y-91750000D03*
%TO.N,Net-(U1-PD0)*%
X151950000Y-113500000D03*
X140750000Y-105250000D03*
%TO.N,Net-(U1-PD1)*%
X140750000Y-104250000D03*
X152750000Y-112750000D03*
%TO.N,Net-(U1-PD2)*%
X156500000Y-108000000D03*
X153550000Y-113500000D03*
%TO.N,Net-(U1-PD3)*%
X159500000Y-110250000D03*
X159500000Y-106750000D03*
%TO.N,Net-(U1-PD4)*%
X158750000Y-110998000D03*
X158750000Y-108250000D03*
%TO.N,Net-(U1-PD5)*%
X154500000Y-107250000D03*
X138250000Y-104000000D03*
%TO.N,Net-(U1-PD6)*%
X152750000Y-108750000D03*
X139750000Y-104500000D03*
%TO.N,Net-(U1-PD7)*%
X152750000Y-110250000D03*
X160250000Y-104250000D03*
%TO.N,Net-(J2-Pin_2)*%
X138684000Y-93980000D03*
X148000000Y-112000000D03*
%TD*%
D14*
%TO.N,Net-(DS1-CA1)*%
X151500000Y-108250000D02*
X151500000Y-101250000D01*
X151500000Y-101250000D02*
X152000000Y-100750000D01*
X151125000Y-108625000D02*
X151500000Y-108250000D01*
%TO.N,Net-(DS1-CA4)*%
X153500000Y-109500000D02*
X154250000Y-109500000D01*
X154250000Y-109500000D02*
X155250000Y-108500000D01*
X155250000Y-108500000D02*
X155250000Y-97750000D01*
%TO.N,Net-(DS1-CA2)*%
X150000000Y-108750000D02*
X150000000Y-100750000D01*
X150000000Y-100750000D02*
X147000000Y-97750000D01*
X147000000Y-97750000D02*
X145000000Y-97750000D01*
%TO.N,+BATT*%
X161500000Y-89250000D02*
X157250000Y-89250000D01*
X139000000Y-109500000D02*
X139000000Y-110000000D01*
X140042000Y-108458000D02*
X139000000Y-109500000D01*
X165300000Y-95300000D02*
X164500000Y-94500000D01*
X142000000Y-109474000D02*
X140984000Y-108458000D01*
X139000000Y-110000000D02*
X139351975Y-110351975D01*
X165300000Y-99550000D02*
X165300000Y-95300000D01*
X164500000Y-94500000D02*
X164500000Y-92250000D01*
X140984000Y-108458000D02*
X140042000Y-108458000D01*
X164500000Y-92250000D02*
X161500000Y-89250000D01*
X165750000Y-100000000D02*
X165300000Y-99550000D01*
%TO.N,/~{RESET}*%
X150250000Y-112750000D02*
X143546052Y-112750000D01*
X150500000Y-113000000D02*
X150250000Y-112750000D01*
X143546052Y-112750000D02*
X142046052Y-111250000D01*
%TO.N,/SDA*%
X150750000Y-115000000D02*
X151000000Y-114750000D01*
X160750000Y-111000000D02*
X160750000Y-105750000D01*
X159250000Y-112500000D02*
X160750000Y-111000000D01*
X156500000Y-112500000D02*
X159250000Y-112500000D01*
X150000000Y-115000000D02*
X150750000Y-115000000D01*
X149550000Y-113500000D02*
X149550000Y-114550000D01*
X162000000Y-104500000D02*
X162000000Y-98000000D01*
X154250000Y-114750000D02*
X156500000Y-112500000D01*
X151000000Y-114750000D02*
X154250000Y-114750000D01*
X149550000Y-114550000D02*
X150000000Y-115000000D01*
X160750000Y-105750000D02*
X162000000Y-104500000D01*
X162000000Y-98000000D02*
X162750000Y-97250000D01*
%TO.N,/SCL*%
X161500000Y-104250000D02*
X161500000Y-93750000D01*
X150500000Y-114250000D02*
X154000000Y-114250000D01*
X160250000Y-110625000D02*
X160250000Y-105500000D01*
X158875000Y-112000000D02*
X160250000Y-110625000D01*
X150350000Y-114100000D02*
X150500000Y-114250000D01*
X156250000Y-112000000D02*
X158875000Y-112000000D01*
X154000000Y-114250000D02*
X156250000Y-112000000D01*
X161500000Y-93750000D02*
X160500000Y-92750000D01*
X160250000Y-105500000D02*
X161500000Y-104250000D01*
%TO.N,/MODE_BUTTON*%
X151500000Y-115750000D02*
X151250000Y-116000000D01*
X148250000Y-115000000D02*
X148000000Y-114750000D01*
X148500000Y-115000000D02*
X148250000Y-115000000D01*
X154522792Y-115750000D02*
X151500000Y-115750000D01*
X158242000Y-113750000D02*
X156522792Y-113750000D01*
X148000000Y-114750000D02*
X148000000Y-113500000D01*
X156522792Y-113750000D02*
X154522792Y-115750000D01*
X151250000Y-116000000D02*
X149500000Y-116000000D01*
X149500000Y-116000000D02*
X148500000Y-115000000D01*
%TO.N,/UP_BUTTON*%
X156500000Y-85250000D02*
X158500000Y-85250000D01*
X148500000Y-115750000D02*
X147000000Y-115750000D01*
X157934000Y-114500000D02*
X157684000Y-114250000D01*
X157684000Y-114250000D02*
X156750000Y-114250000D01*
X165750000Y-92500000D02*
X165750000Y-94250000D01*
X158500000Y-85250000D02*
X165750000Y-92500000D01*
X167000000Y-100000000D02*
X165500000Y-101500000D01*
X161750000Y-111500000D02*
X159500000Y-113750000D01*
X167000000Y-95500000D02*
X167000000Y-100000000D01*
X156750000Y-114250000D02*
X154750000Y-116250000D01*
X158550000Y-114500000D02*
X157934000Y-114500000D01*
X165500000Y-101500000D02*
X164250000Y-101500000D01*
X149250000Y-116500000D02*
X148500000Y-115750000D01*
X161750000Y-106250000D02*
X161750000Y-111500000D01*
X151500000Y-116500000D02*
X149250000Y-116500000D01*
X154750000Y-116250000D02*
X151750000Y-116250000D01*
X151750000Y-116250000D02*
X151500000Y-116500000D01*
X163000000Y-102750000D02*
X163000000Y-105000000D01*
X165750000Y-94250000D02*
X167000000Y-95500000D01*
X159300000Y-113750000D02*
X158550000Y-114500000D01*
X159500000Y-113750000D02*
X159300000Y-113750000D01*
X164250000Y-101500000D02*
X163000000Y-102750000D01*
X163000000Y-105000000D02*
X161750000Y-106250000D01*
%TO.N,/~{INTA}*%
X149750000Y-115500000D02*
X151000000Y-115500000D01*
X156636396Y-113000000D02*
X159500000Y-113000000D01*
X148750000Y-114250000D02*
X148750000Y-114500000D01*
X155000000Y-90000000D02*
X153250000Y-91750000D01*
X148750000Y-114500000D02*
X149750000Y-115500000D01*
X161250000Y-106000000D02*
X162500000Y-104750000D01*
X163500000Y-97750000D02*
X163500000Y-93500000D01*
X160000000Y-90000000D02*
X155000000Y-90000000D01*
X151250000Y-115250000D02*
X154386396Y-115250000D01*
X161250000Y-111250000D02*
X161250000Y-106000000D01*
X159500000Y-113000000D02*
X161250000Y-111250000D01*
X162500000Y-104750000D02*
X162500000Y-98750000D01*
X163500000Y-93500000D02*
X160000000Y-90000000D01*
X162500000Y-98750000D02*
X163500000Y-97750000D01*
X151000000Y-115500000D02*
X151250000Y-115250000D01*
X154386396Y-115250000D02*
X156636396Y-113000000D01*
%TO.N,Net-(U1-PD0)*%
X148500000Y-111250000D02*
X149500000Y-112250000D01*
X149500000Y-112250000D02*
X151500000Y-112250000D01*
X140750000Y-105250000D02*
X146750000Y-111250000D01*
X146750000Y-111250000D02*
X148500000Y-111250000D01*
X151950000Y-112700000D02*
X151950000Y-113500000D01*
X151500000Y-112250000D02*
X151950000Y-112700000D01*
%TO.N,Net-(U1-PD1)*%
X141250000Y-104250000D02*
X141500000Y-104500000D01*
X140750000Y-104250000D02*
X141250000Y-104250000D01*
X141500000Y-104500000D02*
X141500000Y-105250000D01*
X149750000Y-111750000D02*
X151750000Y-111750000D01*
X148750000Y-110750000D02*
X149750000Y-111750000D01*
X151750000Y-111750000D02*
X152750000Y-112750000D01*
X141500000Y-105250000D02*
X147000000Y-110750000D01*
X147000000Y-110750000D02*
X148750000Y-110750000D01*
%TO.N,Net-(U1-PD2)*%
X154113604Y-113500000D02*
X153550000Y-113500000D01*
X156500000Y-111113604D02*
X154113604Y-113500000D01*
X156500000Y-108000000D02*
X156500000Y-111113604D01*
%TO.N,Net-(U1-PD3)*%
X159500000Y-110250000D02*
X159500000Y-106750000D01*
%TO.N,Net-(U1-PD4)*%
X158750000Y-110998000D02*
X158750000Y-108250000D01*
%TO.N,Net-(U1-PD5)*%
X142750000Y-104250000D02*
X142750000Y-105000000D01*
X151500000Y-109500000D02*
X152000000Y-109000000D01*
X141500000Y-103000000D02*
X142750000Y-104250000D01*
X153000000Y-107250000D02*
X154500000Y-107250000D01*
X142750000Y-105000000D02*
X147250000Y-109500000D01*
X147250000Y-109500000D02*
X151500000Y-109500000D01*
X138250000Y-104000000D02*
X139250000Y-103000000D01*
X152000000Y-109000000D02*
X152000000Y-108250000D01*
X152000000Y-108250000D02*
X153000000Y-107250000D01*
X139250000Y-103000000D02*
X141500000Y-103000000D01*
%TO.N,Net-(U1-PD6)*%
X139750000Y-104500000D02*
X139750000Y-104000000D01*
X141250000Y-103500000D02*
X142250000Y-104500000D01*
X142250000Y-104500000D02*
X142250000Y-105250000D01*
X139750000Y-104000000D02*
X140250000Y-103500000D01*
X147000000Y-110000000D02*
X151875000Y-110000000D01*
X151875000Y-110000000D02*
X152750000Y-109125000D01*
X140250000Y-103500000D02*
X141250000Y-103500000D01*
X142250000Y-105250000D02*
X147000000Y-110000000D01*
X152750000Y-109125000D02*
X152750000Y-108750000D01*
%TO.N,Net-(U1-PD7)*%
X160250000Y-104250000D02*
X156750000Y-104250000D01*
X155750000Y-105250000D02*
X155750000Y-108750000D01*
X154250000Y-110250000D02*
X152750000Y-110250000D01*
X155750000Y-108750000D02*
X154250000Y-110250000D01*
X156750000Y-104250000D02*
X155750000Y-105250000D01*
%TO.N,Net-(J2-Pin_2)*%
X138684000Y-93980000D02*
X139446000Y-93980000D01*
X137500000Y-104500000D02*
X138250000Y-105250000D01*
X141250000Y-101000000D02*
X139750000Y-102500000D01*
X139446000Y-93980000D02*
X141250000Y-95784000D01*
X138250000Y-105250000D02*
X139724695Y-105250000D01*
X140750000Y-106000000D02*
X146750000Y-112000000D01*
X139750000Y-102500000D02*
X138500000Y-102500000D01*
X140474695Y-106000000D02*
X140750000Y-106000000D01*
X139724695Y-105250000D02*
X140474695Y-106000000D01*
X137500000Y-103500000D02*
X137500000Y-104500000D01*
X141250000Y-95784000D02*
X141250000Y-101000000D01*
X138500000Y-102500000D02*
X137500000Y-103500000D01*
X146750000Y-112000000D02*
X148000000Y-112000000D01*
%TD*%
%TA.AperFunction,Conductor*%
%TO.N,GND*%
G36*
X156112575Y-108938504D02*
G01*
X156159450Y-108977828D01*
X156174500Y-109030300D01*
X156174500Y-110937769D01*
X156155593Y-110995960D01*
X156145504Y-111007773D01*
X154098110Y-113055166D01*
X154043593Y-113082943D01*
X153983161Y-113073372D01*
X153967839Y-113063704D01*
X153858416Y-112979742D01*
X153852841Y-112975464D01*
X153852840Y-112975463D01*
X153852838Y-112975462D01*
X153706766Y-112914957D01*
X153706758Y-112914955D01*
X153550001Y-112894318D01*
X153549998Y-112894318D01*
X153460834Y-112906056D01*
X153400674Y-112894906D01*
X153358557Y-112850523D01*
X153349760Y-112794980D01*
X153355682Y-112749999D01*
X153346250Y-112678355D01*
X153335044Y-112593238D01*
X153287574Y-112478636D01*
X153274537Y-112447161D01*
X153274537Y-112447160D01*
X153178286Y-112321723D01*
X153178285Y-112321722D01*
X153178282Y-112321718D01*
X153178277Y-112321714D01*
X153178276Y-112321713D01*
X153097626Y-112259829D01*
X153052841Y-112225464D01*
X153052840Y-112225463D01*
X153052838Y-112225462D01*
X152906766Y-112164957D01*
X152906758Y-112164955D01*
X152750001Y-112144318D01*
X152749998Y-112144318D01*
X152669957Y-112154855D01*
X152609797Y-112143705D01*
X152587032Y-112126706D01*
X151993268Y-111532942D01*
X151987434Y-111526574D01*
X151962456Y-111496806D01*
X151928795Y-111477372D01*
X151921512Y-111472732D01*
X151889685Y-111450446D01*
X151889679Y-111450443D01*
X151888224Y-111450054D01*
X151864348Y-111440164D01*
X151863045Y-111439411D01*
X151824779Y-111432664D01*
X151816350Y-111430795D01*
X151791448Y-111424123D01*
X151778807Y-111420736D01*
X151778806Y-111420736D01*
X151778805Y-111420736D01*
X151740095Y-111424123D01*
X151731466Y-111424500D01*
X149925834Y-111424500D01*
X149867643Y-111405593D01*
X149855830Y-111395504D01*
X148993268Y-110532942D01*
X148987434Y-110526574D01*
X148956888Y-110490171D01*
X148959133Y-110488286D01*
X148934241Y-110448446D01*
X148938511Y-110387410D01*
X148977843Y-110340541D01*
X149030301Y-110325500D01*
X151856466Y-110325500D01*
X151865094Y-110325876D01*
X151903807Y-110329264D01*
X151941354Y-110319202D01*
X151949784Y-110317334D01*
X151988045Y-110310588D01*
X151989345Y-110309838D01*
X152013236Y-110299942D01*
X152013440Y-110299887D01*
X152014684Y-110299554D01*
X152014691Y-110299548D01*
X152020596Y-110296796D01*
X152081325Y-110289339D01*
X152134840Y-110319001D01*
X152160590Y-110373598D01*
X152164955Y-110406758D01*
X152164957Y-110406766D01*
X152225462Y-110552838D01*
X152225462Y-110552839D01*
X152321713Y-110678276D01*
X152321718Y-110678282D01*
X152447159Y-110774536D01*
X152447160Y-110774536D01*
X152447161Y-110774537D01*
X152593233Y-110835042D01*
X152593238Y-110835044D01*
X152710809Y-110850522D01*
X152749999Y-110855682D01*
X152750000Y-110855682D01*
X152750001Y-110855682D01*
X152781352Y-110851554D01*
X152906762Y-110835044D01*
X153052841Y-110774536D01*
X153178282Y-110678282D01*
X153227428Y-110614232D01*
X153277852Y-110579577D01*
X153305970Y-110575500D01*
X154231466Y-110575500D01*
X154240094Y-110575876D01*
X154278807Y-110579264D01*
X154316354Y-110569202D01*
X154324784Y-110567334D01*
X154363045Y-110560588D01*
X154364345Y-110559838D01*
X154388236Y-110549942D01*
X154388464Y-110549880D01*
X154389684Y-110549554D01*
X154421533Y-110527251D01*
X154428779Y-110522635D01*
X154462455Y-110503194D01*
X154487443Y-110473413D01*
X154493254Y-110467070D01*
X155967072Y-108993253D01*
X155973431Y-108987428D01*
X156009830Y-108956887D01*
X156011715Y-108959134D01*
X156051538Y-108934244D01*
X156112575Y-108938504D01*
G37*
%TD.AperFunction*%
%TA.AperFunction,Conductor*%
G36*
X150772927Y-82251045D02*
G01*
X151513756Y-82268680D01*
X151514705Y-82268709D01*
X151604450Y-82271938D01*
X151607774Y-82272117D01*
X152341008Y-82324559D01*
X152341736Y-82324616D01*
X152437378Y-82332662D01*
X152440780Y-82333008D01*
X153164912Y-82419589D01*
X153165654Y-82419683D01*
X153266536Y-82433067D01*
X153269862Y-82433567D01*
X153983687Y-82553603D01*
X153984518Y-82553748D01*
X154089874Y-82572905D01*
X154093177Y-82573564D01*
X154795406Y-82726324D01*
X154796579Y-82726587D01*
X154901350Y-82750879D01*
X154905615Y-82751868D01*
X154908877Y-82752683D01*
X155059571Y-82793061D01*
X155598599Y-82937493D01*
X155599629Y-82937777D01*
X155711941Y-82969562D01*
X155714982Y-82970478D01*
X156391002Y-83186578D01*
X156392035Y-83186916D01*
X156506847Y-83225442D01*
X156509832Y-83226499D01*
X157170844Y-83473044D01*
X157172132Y-83473535D01*
X157288617Y-83518945D01*
X157291556Y-83520147D01*
X157936615Y-83796378D01*
X157937828Y-83796909D01*
X157985548Y-83818200D01*
X158055473Y-83849401D01*
X158058390Y-83850760D01*
X158686237Y-84155749D01*
X158687426Y-84156337D01*
X158805685Y-84216058D01*
X158808502Y-84217539D01*
X159000992Y-84322646D01*
X159418224Y-84550471D01*
X159419419Y-84551136D01*
X159537540Y-84618080D01*
X159540219Y-84619655D01*
X160130780Y-84979621D01*
X160131933Y-84980336D01*
X160215179Y-85032942D01*
X160249333Y-85054525D01*
X160251928Y-85056223D01*
X160822247Y-85442226D01*
X160823496Y-85443086D01*
X160885005Y-85486216D01*
X160939471Y-85524408D01*
X160941962Y-85526212D01*
X161491071Y-85937270D01*
X161492392Y-85938277D01*
X161606454Y-86026709D01*
X161608812Y-86028596D01*
X162135673Y-86463610D01*
X162136981Y-86464709D01*
X162248672Y-86560218D01*
X162250925Y-86562205D01*
X162754713Y-87020178D01*
X162755976Y-87021346D01*
X162864681Y-87123721D01*
X162866773Y-87125751D01*
X163346723Y-87605701D01*
X163347970Y-87606972D01*
X163414289Y-87675721D01*
X163453066Y-87715918D01*
X163455070Y-87718058D01*
X163910211Y-88218731D01*
X163911421Y-88220086D01*
X164012530Y-88335495D01*
X164014406Y-88337701D01*
X164444047Y-88858056D01*
X164445213Y-88859495D01*
X164541762Y-88980989D01*
X164543509Y-88983254D01*
X164946917Y-89522144D01*
X164948034Y-89523666D01*
X165039634Y-89651023D01*
X165041250Y-89653339D01*
X165417638Y-90209452D01*
X165418701Y-90211056D01*
X165504958Y-90343996D01*
X165506442Y-90346356D01*
X165855169Y-90918478D01*
X165856173Y-90920162D01*
X165936674Y-91058316D01*
X165938026Y-91060712D01*
X166258520Y-91647652D01*
X166259459Y-91649414D01*
X166333830Y-91792397D01*
X166335050Y-91794824D01*
X166626725Y-92395264D01*
X166627595Y-92397101D01*
X166695511Y-92544539D01*
X166696599Y-92546987D01*
X166958971Y-93159681D01*
X166959765Y-93161591D01*
X167020896Y-93313011D01*
X167021853Y-93315476D01*
X167254457Y-93939111D01*
X167255171Y-93941090D01*
X167309265Y-94096107D01*
X167310092Y-94098581D01*
X167512506Y-94731790D01*
X167513136Y-94733835D01*
X167559951Y-94891996D01*
X167560649Y-94894472D01*
X167732533Y-95535948D01*
X167733073Y-95538057D01*
X167772407Y-95698922D01*
X167772978Y-95701392D01*
X167914024Y-96349772D01*
X167914470Y-96351939D01*
X167946143Y-96514999D01*
X167946588Y-96517459D01*
X168056544Y-97171343D01*
X168056892Y-97173564D01*
X168080769Y-97338354D01*
X168081092Y-97340797D01*
X168159773Y-97998854D01*
X168160018Y-98001125D01*
X168175995Y-98167172D01*
X168176198Y-98169591D01*
X168223462Y-98830433D01*
X168223600Y-98832749D01*
X168231605Y-98999510D01*
X168231691Y-99001901D01*
X168249443Y-99747643D01*
X168249443Y-99752355D01*
X168231691Y-100498097D01*
X168231605Y-100500488D01*
X168223600Y-100667249D01*
X168223462Y-100669565D01*
X168176198Y-101330407D01*
X168175995Y-101332826D01*
X168160018Y-101498873D01*
X168159773Y-101501144D01*
X168081092Y-102159201D01*
X168080769Y-102161644D01*
X168056892Y-102326434D01*
X168056544Y-102328655D01*
X167946588Y-102982539D01*
X167946143Y-102984999D01*
X167914470Y-103148059D01*
X167914024Y-103150226D01*
X167772978Y-103798606D01*
X167772407Y-103801076D01*
X167733073Y-103961941D01*
X167732533Y-103964050D01*
X167560649Y-104605526D01*
X167559951Y-104608002D01*
X167513136Y-104766163D01*
X167512506Y-104768208D01*
X167310092Y-105401417D01*
X167309265Y-105403891D01*
X167255171Y-105558908D01*
X167254457Y-105560887D01*
X167021853Y-106184522D01*
X167020896Y-106186987D01*
X166959765Y-106338407D01*
X166958971Y-106340317D01*
X166696599Y-106953011D01*
X166695511Y-106955459D01*
X166627595Y-107102897D01*
X166626725Y-107104734D01*
X166335050Y-107705174D01*
X166333830Y-107707601D01*
X166259459Y-107850584D01*
X166258520Y-107852346D01*
X165938026Y-108439286D01*
X165936674Y-108441682D01*
X165856173Y-108579836D01*
X165855169Y-108581520D01*
X165506442Y-109153642D01*
X165504958Y-109156002D01*
X165418701Y-109288942D01*
X165417638Y-109290546D01*
X165041250Y-109846659D01*
X165039634Y-109848975D01*
X164948034Y-109976332D01*
X164946917Y-109977854D01*
X164543509Y-110516744D01*
X164541762Y-110519009D01*
X164445213Y-110640503D01*
X164444047Y-110641942D01*
X164014406Y-111162297D01*
X164012530Y-111164503D01*
X163911421Y-111279912D01*
X163910211Y-111281267D01*
X163455070Y-111781940D01*
X163453066Y-111784080D01*
X163347970Y-111893026D01*
X163346723Y-111894297D01*
X162866773Y-112374247D01*
X162864643Y-112376314D01*
X162755994Y-112478636D01*
X162754713Y-112479820D01*
X162250925Y-112937793D01*
X162248672Y-112939780D01*
X162136981Y-113035289D01*
X162135673Y-113036388D01*
X161608812Y-113471402D01*
X161606439Y-113473301D01*
X161492401Y-113561714D01*
X161491071Y-113562728D01*
X160941962Y-113973786D01*
X160939471Y-113975590D01*
X160823545Y-114056878D01*
X160822197Y-114057807D01*
X160251936Y-114443770D01*
X160249333Y-114445473D01*
X160132029Y-114519602D01*
X160130668Y-114520446D01*
X159540234Y-114880334D01*
X159537521Y-114881929D01*
X159419530Y-114948800D01*
X159418162Y-114949561D01*
X158808502Y-115282459D01*
X158805685Y-115283940D01*
X158687509Y-115343620D01*
X158686138Y-115344298D01*
X158058390Y-115649238D01*
X158055473Y-115650597D01*
X157937879Y-115703067D01*
X157936510Y-115703666D01*
X157291592Y-115979836D01*
X157288579Y-115981068D01*
X157172168Y-116026449D01*
X157170807Y-116026968D01*
X156509890Y-116273478D01*
X156506787Y-116274577D01*
X156392187Y-116313032D01*
X156390837Y-116313474D01*
X155715054Y-116529498D01*
X155711868Y-116530458D01*
X155599779Y-116562179D01*
X155598444Y-116562547D01*
X154959781Y-116733676D01*
X154898680Y-116730473D01*
X154862520Y-116701191D01*
X154861176Y-116716557D01*
X154821035Y-116762734D01*
X154791090Y-116774613D01*
X154093186Y-116926432D01*
X154089854Y-116927097D01*
X153984739Y-116946211D01*
X153983444Y-116946437D01*
X153269897Y-117066425D01*
X153266501Y-117066936D01*
X153165913Y-117080282D01*
X153164645Y-117080442D01*
X152440802Y-117166987D01*
X152437350Y-117167338D01*
X152342015Y-117175360D01*
X152340777Y-117175457D01*
X151607863Y-117227876D01*
X151604360Y-117228064D01*
X151514833Y-117231285D01*
X151513629Y-117231321D01*
X150772965Y-117248952D01*
X150769422Y-117248973D01*
X150686357Y-117247977D01*
X150685188Y-117247956D01*
X149937967Y-117230169D01*
X149934390Y-117230019D01*
X149858564Y-117225467D01*
X149857435Y-117225393D01*
X149104791Y-117171564D01*
X149101190Y-117171240D01*
X149033253Y-117163880D01*
X149032163Y-117163756D01*
X148275341Y-117073266D01*
X148271724Y-117072766D01*
X148212317Y-117063430D01*
X148211270Y-117063259D01*
X147451526Y-116935501D01*
X147447903Y-116934822D01*
X147397764Y-116924458D01*
X147396760Y-116924246D01*
X146635196Y-116758579D01*
X146631589Y-116757723D01*
X146607700Y-116751577D01*
X146591169Y-116747324D01*
X146590214Y-116747073D01*
X145828225Y-116542898D01*
X145824614Y-116541856D01*
X145794612Y-116532583D01*
X145793702Y-116532297D01*
X145032455Y-116288953D01*
X145028864Y-116287729D01*
X145009943Y-116280871D01*
X145009081Y-116280554D01*
X144249684Y-115997314D01*
X144246147Y-115995916D01*
X144238835Y-115992862D01*
X144238035Y-115992523D01*
X143482599Y-115669027D01*
X143478313Y-115667069D01*
X142733394Y-115305210D01*
X142729205Y-115303051D01*
X142002311Y-114906137D01*
X141998231Y-114903781D01*
X141459652Y-114575500D01*
X141291064Y-114472740D01*
X141287123Y-114470207D01*
X140601253Y-114005998D01*
X140597417Y-114003267D01*
X140597319Y-114003194D01*
X140322091Y-113797160D01*
X139934401Y-113506938D01*
X139930698Y-113504025D01*
X139358899Y-113031909D01*
X140617696Y-113031909D01*
X140828302Y-113242515D01*
X140874921Y-113280083D01*
X140874920Y-113280083D01*
X141005714Y-113339814D01*
X141148023Y-113360274D01*
X141148029Y-113360274D01*
X141290337Y-113339814D01*
X141421130Y-113280083D01*
X141467754Y-113242511D01*
X141678355Y-113031909D01*
X141148025Y-112501579D01*
X140617696Y-113031909D01*
X139358899Y-113031909D01*
X139292077Y-112976736D01*
X139288516Y-112973650D01*
X138675721Y-112416583D01*
X138672310Y-112413332D01*
X138086667Y-111827689D01*
X138083416Y-111824278D01*
X137986738Y-111717929D01*
X137526348Y-111211482D01*
X137523263Y-111207922D01*
X136995974Y-110569301D01*
X136993061Y-110565598D01*
X136629307Y-110079681D01*
X136496725Y-109902572D01*
X136493999Y-109898743D01*
X136444427Y-109825500D01*
X136029785Y-109212866D01*
X136027266Y-109208946D01*
X135596217Y-108501766D01*
X135593862Y-108497688D01*
X135589439Y-108489587D01*
X135196942Y-107770784D01*
X135194789Y-107766605D01*
X135161055Y-107697161D01*
X135005867Y-107377692D01*
X134943840Y-107250003D01*
X136494723Y-107250003D01*
X136513791Y-107467969D01*
X136513792Y-107467976D01*
X136513793Y-107467977D01*
X136570425Y-107679330D01*
X136662898Y-107877639D01*
X136696747Y-107925980D01*
X136776553Y-108039956D01*
X136788402Y-108056877D01*
X136943123Y-108211598D01*
X136943126Y-108211600D01*
X136943127Y-108211601D01*
X136962923Y-108225462D01*
X137122361Y-108337102D01*
X137320670Y-108429575D01*
X137354846Y-108438732D01*
X137359801Y-108440201D01*
X137362939Y-108441220D01*
X137362943Y-108441220D01*
X137362948Y-108441223D01*
X137369200Y-108442650D01*
X137372773Y-108443536D01*
X137532023Y-108486207D01*
X137570694Y-108489590D01*
X137577461Y-108490654D01*
X137577470Y-108490594D01*
X137581861Y-108491189D01*
X137581865Y-108491189D01*
X137581869Y-108491190D01*
X137594459Y-108491755D01*
X137598515Y-108492024D01*
X137730907Y-108503606D01*
X137749998Y-108505277D01*
X137750000Y-108505277D01*
X137750001Y-108505277D01*
X137754762Y-108504860D01*
X137792843Y-108501528D01*
X137805908Y-108501252D01*
X137806194Y-108501265D01*
X137822788Y-108499017D01*
X137827329Y-108498511D01*
X137967977Y-108486207D01*
X138013652Y-108473968D01*
X138025973Y-108471494D01*
X138028713Y-108471123D01*
X138047173Y-108465124D01*
X138052055Y-108463678D01*
X138179330Y-108429575D01*
X138226128Y-108407752D01*
X138237360Y-108403328D01*
X138242274Y-108401732D01*
X138260809Y-108391757D01*
X138265819Y-108389244D01*
X138377639Y-108337102D01*
X138423563Y-108304945D01*
X138433409Y-108298878D01*
X138440013Y-108295325D01*
X138457145Y-108281662D01*
X138462008Y-108278025D01*
X138556877Y-108211598D01*
X138599716Y-108168758D01*
X138607971Y-108161381D01*
X138615574Y-108155319D01*
X138630116Y-108138673D01*
X138634643Y-108133831D01*
X138711598Y-108056877D01*
X138749004Y-108003455D01*
X138755514Y-107995144D01*
X138763315Y-107986216D01*
X138774525Y-107967452D01*
X138778374Y-107961511D01*
X138837102Y-107877639D01*
X138866665Y-107814240D01*
X138871388Y-107805332D01*
X138878487Y-107793451D01*
X138885924Y-107773633D01*
X138888878Y-107766605D01*
X138929575Y-107679330D01*
X138948942Y-107607050D01*
X138951878Y-107597901D01*
X138957389Y-107583218D01*
X138960989Y-107563379D01*
X138962763Y-107555469D01*
X138986207Y-107467977D01*
X138986207Y-107467975D01*
X138986208Y-107467972D01*
X138990084Y-107423657D01*
X138993167Y-107388418D01*
X138994381Y-107379374D01*
X138997484Y-107362278D01*
X138997513Y-107360941D01*
X138998111Y-107334273D01*
X138998460Y-107327919D01*
X139005277Y-107250000D01*
X138998460Y-107172083D01*
X138998111Y-107165724D01*
X138997484Y-107137724D01*
X138994378Y-107120612D01*
X138993166Y-107111570D01*
X138992407Y-107102897D01*
X138990295Y-107078751D01*
X138986208Y-107032030D01*
X138986207Y-107032027D01*
X138986207Y-107032023D01*
X138962764Y-106944533D01*
X138960983Y-106936589D01*
X138960270Y-106932662D01*
X138957389Y-106916782D01*
X138951875Y-106902092D01*
X138948942Y-106892949D01*
X138929575Y-106820670D01*
X138888876Y-106733391D01*
X138885923Y-106726363D01*
X138878487Y-106706549D01*
X138878484Y-106706544D01*
X138878482Y-106706539D01*
X138871393Y-106694674D01*
X138866655Y-106685736D01*
X138837107Y-106622372D01*
X138837103Y-106622364D01*
X138816705Y-106593233D01*
X138778399Y-106538525D01*
X138774509Y-106532519D01*
X138771204Y-106526988D01*
X138763315Y-106513784D01*
X138755517Y-106504859D01*
X138748995Y-106496532D01*
X138711598Y-106443123D01*
X138694308Y-106425833D01*
X138634647Y-106366171D01*
X138630097Y-106361304D01*
X138615574Y-106344681D01*
X138615572Y-106344679D01*
X138607982Y-106338626D01*
X138599706Y-106331230D01*
X138556877Y-106288402D01*
X138556873Y-106288399D01*
X138462053Y-106222005D01*
X138457112Y-106218311D01*
X138440010Y-106204673D01*
X138433410Y-106201121D01*
X138423544Y-106195041D01*
X138384784Y-106167901D01*
X138377639Y-106162898D01*
X138377638Y-106162897D01*
X138377636Y-106162896D01*
X138302139Y-106127692D01*
X138265834Y-106110762D01*
X138260777Y-106108225D01*
X138242272Y-106098267D01*
X138242271Y-106098266D01*
X138237350Y-106096667D01*
X138226120Y-106092243D01*
X138197248Y-106078780D01*
X138179330Y-106070425D01*
X138179328Y-106070424D01*
X138179325Y-106070423D01*
X138179322Y-106070422D01*
X138052087Y-106036328D01*
X138047123Y-106034858D01*
X138028714Y-106028877D01*
X138028711Y-106028876D01*
X138025969Y-106028505D01*
X138013644Y-106026029D01*
X137989212Y-106019483D01*
X137967977Y-106013793D01*
X137967974Y-106013792D01*
X137967968Y-106013791D01*
X137967973Y-106013791D01*
X137827382Y-106001492D01*
X137822722Y-106000973D01*
X137806194Y-105998734D01*
X137805893Y-105998748D01*
X137792839Y-105998470D01*
X137750004Y-105994723D01*
X137749995Y-105994723D01*
X137598575Y-106007969D01*
X137594397Y-106008246D01*
X137581869Y-106008809D01*
X137577471Y-106009405D01*
X137577463Y-106009346D01*
X137570687Y-106010409D01*
X137536240Y-106013424D01*
X137532023Y-106013793D01*
X137532021Y-106013793D01*
X137372779Y-106056461D01*
X137369197Y-106057349D01*
X137362949Y-106058775D01*
X137359786Y-106059803D01*
X137354834Y-106061270D01*
X137320665Y-106070426D01*
X137122372Y-106162892D01*
X137122364Y-106162896D01*
X136943127Y-106288398D01*
X136788398Y-106443127D01*
X136662896Y-106622364D01*
X136662892Y-106622372D01*
X136570426Y-106820666D01*
X136513791Y-107032030D01*
X136494723Y-107249996D01*
X136494723Y-107250003D01*
X134943840Y-107250003D01*
X134832930Y-107021685D01*
X134830972Y-107017400D01*
X134802299Y-106950442D01*
X134504935Y-106256032D01*
X134503210Y-106251723D01*
X134213779Y-105475728D01*
X134212239Y-105471277D01*
X133960067Y-104682412D01*
X133958751Y-104677933D01*
X133918792Y-104528806D01*
X137170736Y-104528806D01*
X137180795Y-104566350D01*
X137182664Y-104574779D01*
X137189411Y-104613045D01*
X137190164Y-104614348D01*
X137200054Y-104638224D01*
X137200443Y-104639679D01*
X137200446Y-104639685D01*
X137222732Y-104671512D01*
X137227372Y-104678795D01*
X137246806Y-104712455D01*
X137276569Y-104737429D01*
X137282938Y-104743264D01*
X138006741Y-105467068D01*
X138012565Y-105473424D01*
X138037545Y-105503194D01*
X138071208Y-105522629D01*
X138078473Y-105527257D01*
X138110316Y-105549554D01*
X138111767Y-105549942D01*
X138135659Y-105559840D01*
X138136954Y-105560588D01*
X138148190Y-105562568D01*
X138175233Y-105567337D01*
X138183642Y-105569201D01*
X138221193Y-105579263D01*
X138221194Y-105579262D01*
X138221194Y-105579263D01*
X138259897Y-105575877D01*
X138268525Y-105575500D01*
X139548861Y-105575500D01*
X139607052Y-105594407D01*
X139618865Y-105604496D01*
X140231436Y-106217068D01*
X140237260Y-106223424D01*
X140262240Y-106253194D01*
X140295903Y-106272629D01*
X140303168Y-106277257D01*
X140335011Y-106299554D01*
X140336462Y-106299942D01*
X140360354Y-106309840D01*
X140361649Y-106310588D01*
X140372885Y-106312568D01*
X140399928Y-106317337D01*
X140408337Y-106319201D01*
X140445888Y-106329263D01*
X140445889Y-106329262D01*
X140445889Y-106329263D01*
X140484592Y-106325877D01*
X140493220Y-106325500D01*
X140574166Y-106325500D01*
X140632357Y-106344407D01*
X140644169Y-106354495D01*
X143577215Y-109287542D01*
X146506741Y-112217068D01*
X146512565Y-112223424D01*
X146537545Y-112253194D01*
X146537546Y-112253194D01*
X146543113Y-112259829D01*
X146540866Y-112261713D01*
X146565759Y-112301554D01*
X146561489Y-112362590D01*
X146522157Y-112409459D01*
X146469699Y-112424500D01*
X143721887Y-112424500D01*
X143663696Y-112405593D01*
X143651883Y-112395504D01*
X142759219Y-111502841D01*
X142731442Y-111448324D01*
X142730945Y-111420904D01*
X142742462Y-111326060D01*
X142747434Y-111285111D01*
X142751697Y-111250001D01*
X142751697Y-111249998D01*
X142744216Y-111188388D01*
X142731192Y-111081128D01*
X142670870Y-110922070D01*
X142574235Y-110782071D01*
X142446904Y-110669266D01*
X142296277Y-110590210D01*
X142296276Y-110590209D01*
X142296275Y-110590209D01*
X142131110Y-110549500D01*
X142131108Y-110549500D01*
X141960996Y-110549500D01*
X141960993Y-110549500D01*
X141955054Y-110550222D01*
X141954760Y-110547805D01*
X141903858Y-110544103D01*
X141857098Y-110504642D01*
X141842463Y-110445233D01*
X141842924Y-110440483D01*
X141843965Y-110431914D01*
X141849368Y-110387410D01*
X141853671Y-110351976D01*
X141853671Y-110351975D01*
X141849465Y-110317334D01*
X141833166Y-110183103D01*
X141833165Y-110183100D01*
X141833084Y-110182433D01*
X141844839Y-110122387D01*
X141889643Y-110080719D01*
X141944281Y-110072346D01*
X142000000Y-110079682D01*
X142156762Y-110059044D01*
X142302841Y-109998536D01*
X142428282Y-109902282D01*
X142524536Y-109776841D01*
X142585044Y-109630762D01*
X142605682Y-109474000D01*
X142605312Y-109471193D01*
X142588772Y-109345554D01*
X142585044Y-109317238D01*
X142572744Y-109287544D01*
X142524537Y-109171161D01*
X142524537Y-109171160D01*
X142428286Y-109045723D01*
X142428285Y-109045722D01*
X142428282Y-109045718D01*
X142428277Y-109045714D01*
X142428276Y-109045713D01*
X142302838Y-108949462D01*
X142156766Y-108888957D01*
X142156758Y-108888955D01*
X142000001Y-108868318D01*
X141999998Y-108868318D01*
X141919957Y-108878855D01*
X141859797Y-108867705D01*
X141837032Y-108850706D01*
X141227268Y-108240942D01*
X141221434Y-108234574D01*
X141196456Y-108204806D01*
X141162795Y-108185372D01*
X141155512Y-108180732D01*
X141123685Y-108158446D01*
X141123679Y-108158443D01*
X141122224Y-108158054D01*
X141098348Y-108148164D01*
X141097045Y-108147411D01*
X141058779Y-108140664D01*
X141050350Y-108138795D01*
X141025448Y-108132123D01*
X141012807Y-108128736D01*
X141012806Y-108128736D01*
X141012805Y-108128736D01*
X140974095Y-108132123D01*
X140965466Y-108132500D01*
X140060535Y-108132500D01*
X140051906Y-108132123D01*
X140013195Y-108128736D01*
X140013193Y-108128736D01*
X139975650Y-108138795D01*
X139967222Y-108140664D01*
X139928956Y-108147411D01*
X139928948Y-108147414D01*
X139927640Y-108148170D01*
X139903786Y-108158051D01*
X139902324Y-108158442D01*
X139902317Y-108158445D01*
X139902316Y-108158446D01*
X139870475Y-108180740D01*
X139863205Y-108185371D01*
X139829545Y-108204805D01*
X139804569Y-108234570D01*
X139798736Y-108240936D01*
X138782940Y-109256732D01*
X138776574Y-109262564D01*
X138746807Y-109287542D01*
X138746805Y-109287544D01*
X138727371Y-109321205D01*
X138722740Y-109328475D01*
X138700446Y-109360316D01*
X138700446Y-109360317D01*
X138700442Y-109360324D01*
X138700051Y-109361786D01*
X138690170Y-109385640D01*
X138689414Y-109386948D01*
X138689410Y-109386960D01*
X138682662Y-109425223D01*
X138680794Y-109433649D01*
X138670736Y-109471187D01*
X138670736Y-109471194D01*
X138674123Y-109509904D01*
X138674500Y-109518533D01*
X138674500Y-109981465D01*
X138674123Y-109990094D01*
X138670736Y-110028805D01*
X138670736Y-110028806D01*
X138680795Y-110066350D01*
X138682664Y-110074779D01*
X138685948Y-110093403D01*
X138681020Y-110145698D01*
X138666834Y-110183104D01*
X138646330Y-110351973D01*
X138646330Y-110351976D01*
X138650633Y-110387410D01*
X138666835Y-110520847D01*
X138727157Y-110679905D01*
X138823791Y-110819902D01*
X138823793Y-110819905D01*
X138847873Y-110841238D01*
X138951123Y-110932709D01*
X139101750Y-111011765D01*
X139266919Y-111052475D01*
X139266922Y-111052475D01*
X139437028Y-111052475D01*
X139437031Y-111052475D01*
X139437033Y-111052474D01*
X139442973Y-111051753D01*
X139443267Y-111054174D01*
X139494144Y-111057863D01*
X139540914Y-111097313D01*
X139555564Y-111156718D01*
X139555101Y-111161491D01*
X139544355Y-111249997D01*
X139544355Y-111250001D01*
X139548618Y-111285111D01*
X139564860Y-111418872D01*
X139625182Y-111577930D01*
X139721816Y-111717927D01*
X139721818Y-111717930D01*
X139849146Y-111830733D01*
X139917019Y-111866356D01*
X139959758Y-111910141D01*
X139968598Y-111970684D01*
X139961067Y-111995137D01*
X139956238Y-112005712D01*
X139935778Y-112148022D01*
X139935778Y-112148029D01*
X139956237Y-112290337D01*
X140015968Y-112421130D01*
X140053536Y-112467749D01*
X140264142Y-112678355D01*
X140823026Y-112119471D01*
X140823026Y-112205332D01*
X140862225Y-112313033D01*
X140935897Y-112400831D01*
X141035155Y-112458138D01*
X141119590Y-112473026D01*
X141176462Y-112473026D01*
X141260897Y-112458138D01*
X141360155Y-112400831D01*
X141433827Y-112313033D01*
X141473026Y-112205332D01*
X141473026Y-112119472D01*
X142031909Y-112678355D01*
X142242511Y-112467754D01*
X142280083Y-112421130D01*
X142339812Y-112290340D01*
X142347648Y-112235837D01*
X142374643Y-112180929D01*
X142428757Y-112152374D01*
X142489320Y-112161081D01*
X142515645Y-112179920D01*
X143302793Y-112967068D01*
X143308617Y-112973424D01*
X143333597Y-113003194D01*
X143367260Y-113022629D01*
X143374525Y-113027257D01*
X143406368Y-113049554D01*
X143407819Y-113049942D01*
X143431711Y-113059840D01*
X143433006Y-113060588D01*
X143444242Y-113062568D01*
X143471285Y-113067337D01*
X143479694Y-113069201D01*
X143517245Y-113079263D01*
X143517246Y-113079262D01*
X143517246Y-113079263D01*
X143555949Y-113075877D01*
X143564577Y-113075500D01*
X147377693Y-113075500D01*
X147435884Y-113094407D01*
X147471848Y-113143907D01*
X147471848Y-113205093D01*
X147469158Y-113212380D01*
X147422177Y-113325805D01*
X147414957Y-113343236D01*
X147414955Y-113343241D01*
X147394318Y-113499999D01*
X147394318Y-113500000D01*
X147414955Y-113656758D01*
X147414957Y-113656766D01*
X147475462Y-113802838D01*
X147475462Y-113802839D01*
X147550615Y-113900780D01*
X147571718Y-113928282D01*
X147633371Y-113975590D01*
X147635767Y-113977428D01*
X147670423Y-114027852D01*
X147674500Y-114055970D01*
X147674500Y-114731465D01*
X147674123Y-114740094D01*
X147670736Y-114778805D01*
X147670736Y-114778806D01*
X147680795Y-114816350D01*
X147682664Y-114824779D01*
X147689411Y-114863045D01*
X147690164Y-114864348D01*
X147700054Y-114888224D01*
X147700443Y-114889679D01*
X147700447Y-114889687D01*
X147722732Y-114921514D01*
X147727370Y-114928794D01*
X147746804Y-114962454D01*
X147776567Y-114987428D01*
X147782935Y-114993262D01*
X148006740Y-115217067D01*
X148012564Y-115223423D01*
X148037545Y-115253194D01*
X148037546Y-115253194D01*
X148043113Y-115259829D01*
X148040866Y-115261713D01*
X148065759Y-115301554D01*
X148061489Y-115362590D01*
X148022157Y-115409459D01*
X147969699Y-115424500D01*
X147555970Y-115424500D01*
X147497779Y-115405593D01*
X147477428Y-115385767D01*
X147428285Y-115321722D01*
X147428282Y-115321718D01*
X147428277Y-115321714D01*
X147428276Y-115321713D01*
X147347626Y-115259829D01*
X147302841Y-115225464D01*
X147302840Y-115225463D01*
X147302838Y-115225462D01*
X147156766Y-115164957D01*
X147156758Y-115164955D01*
X147000001Y-115144318D01*
X146999999Y-115144318D01*
X146843241Y-115164955D01*
X146843233Y-115164957D01*
X146697161Y-115225462D01*
X146697160Y-115225462D01*
X146571723Y-115321713D01*
X146571713Y-115321723D01*
X146475462Y-115447160D01*
X146475462Y-115447161D01*
X146414957Y-115593233D01*
X146414955Y-115593241D01*
X146394318Y-115749999D01*
X146394318Y-115750000D01*
X146414955Y-115906758D01*
X146414957Y-115906766D01*
X146475462Y-116052838D01*
X146475462Y-116052839D01*
X146571713Y-116178276D01*
X146571718Y-116178282D01*
X146697159Y-116274536D01*
X146697160Y-116274536D01*
X146697161Y-116274537D01*
X146740943Y-116292672D01*
X146843238Y-116335044D01*
X146960809Y-116350522D01*
X146999999Y-116355682D01*
X147000000Y-116355682D01*
X147000001Y-116355682D01*
X147031352Y-116351554D01*
X147156762Y-116335044D01*
X147302841Y-116274536D01*
X147428282Y-116178282D01*
X147477428Y-116114232D01*
X147527852Y-116079577D01*
X147555970Y-116075500D01*
X148324166Y-116075500D01*
X148382357Y-116094407D01*
X148394170Y-116104496D01*
X149006741Y-116717068D01*
X149012565Y-116723424D01*
X149037545Y-116753194D01*
X149071208Y-116772629D01*
X149078473Y-116777257D01*
X149110316Y-116799554D01*
X149111767Y-116799942D01*
X149135659Y-116809840D01*
X149136954Y-116810588D01*
X149148190Y-116812568D01*
X149175233Y-116817337D01*
X149183642Y-116819201D01*
X149221193Y-116829263D01*
X149221194Y-116829262D01*
X149221194Y-116829263D01*
X149259897Y-116825877D01*
X149268525Y-116825500D01*
X151481466Y-116825500D01*
X151490094Y-116825876D01*
X151528807Y-116829264D01*
X151566354Y-116819202D01*
X151574784Y-116817334D01*
X151613045Y-116810588D01*
X151614345Y-116809838D01*
X151638236Y-116799942D01*
X151638464Y-116799880D01*
X151639684Y-116799554D01*
X151671529Y-116777254D01*
X151678785Y-116772632D01*
X151712455Y-116753194D01*
X151737447Y-116723409D01*
X151743258Y-116717067D01*
X151855831Y-116604496D01*
X151910348Y-116576719D01*
X151925834Y-116575500D01*
X154731466Y-116575500D01*
X154740094Y-116575877D01*
X154747320Y-116576509D01*
X154778675Y-116579252D01*
X154834995Y-116603158D01*
X154842136Y-116615043D01*
X154857221Y-116575746D01*
X154883222Y-116555433D01*
X154882586Y-116554524D01*
X154889682Y-116549554D01*
X154889684Y-116549554D01*
X154921533Y-116527251D01*
X154928779Y-116522635D01*
X154962455Y-116503194D01*
X154987443Y-116473413D01*
X154993254Y-116467070D01*
X156855830Y-114604496D01*
X156910347Y-114576719D01*
X156925834Y-114575500D01*
X157508167Y-114575500D01*
X157566358Y-114594407D01*
X157578169Y-114604495D01*
X157648173Y-114674500D01*
X157690735Y-114717062D01*
X157696559Y-114723417D01*
X157721545Y-114753194D01*
X157755209Y-114772629D01*
X157762480Y-114777261D01*
X157794316Y-114799553D01*
X157795766Y-114799941D01*
X157819649Y-114809834D01*
X157820955Y-114810588D01*
X157859234Y-114817337D01*
X157867658Y-114819205D01*
X157905193Y-114829263D01*
X157943897Y-114825877D01*
X157952525Y-114825500D01*
X158531466Y-114825500D01*
X158540094Y-114825876D01*
X158578807Y-114829264D01*
X158616354Y-114819202D01*
X158624784Y-114817334D01*
X158663045Y-114810588D01*
X158664345Y-114809838D01*
X158688236Y-114799942D01*
X158688464Y-114799880D01*
X158689684Y-114799554D01*
X158721533Y-114777251D01*
X158728779Y-114772635D01*
X158762455Y-114753194D01*
X158787448Y-114723407D01*
X158793263Y-114717062D01*
X159405831Y-114104496D01*
X159460347Y-114076719D01*
X159475834Y-114075500D01*
X159481466Y-114075500D01*
X159490094Y-114075876D01*
X159528807Y-114079264D01*
X159566354Y-114069202D01*
X159574784Y-114067334D01*
X159613045Y-114060588D01*
X159614345Y-114059838D01*
X159638236Y-114049942D01*
X159638464Y-114049880D01*
X159639684Y-114049554D01*
X159671533Y-114027251D01*
X159678779Y-114022635D01*
X159712455Y-114003194D01*
X159737443Y-113973413D01*
X159743254Y-113967070D01*
X161967066Y-111743258D01*
X161973425Y-111737433D01*
X162003194Y-111712455D01*
X162022635Y-111678779D01*
X162027251Y-111671533D01*
X162049554Y-111639684D01*
X162049942Y-111638236D01*
X162059838Y-111614345D01*
X162060586Y-111613048D01*
X162060585Y-111613048D01*
X162060588Y-111613045D01*
X162067338Y-111574755D01*
X162069196Y-111566374D01*
X162079264Y-111528806D01*
X162075877Y-111490090D01*
X162075500Y-111481462D01*
X162075500Y-107250003D01*
X162494723Y-107250003D01*
X162513791Y-107467969D01*
X162513792Y-107467976D01*
X162513793Y-107467977D01*
X162570425Y-107679330D01*
X162662898Y-107877639D01*
X162696747Y-107925980D01*
X162776553Y-108039956D01*
X162788402Y-108056877D01*
X162943123Y-108211598D01*
X162943126Y-108211600D01*
X162943127Y-108211601D01*
X162962923Y-108225462D01*
X163122361Y-108337102D01*
X163320670Y-108429575D01*
X163354846Y-108438732D01*
X163359801Y-108440201D01*
X163362939Y-108441220D01*
X163362943Y-108441220D01*
X163362948Y-108441223D01*
X163369200Y-108442650D01*
X163372773Y-108443536D01*
X163532023Y-108486207D01*
X163570694Y-108489590D01*
X163577461Y-108490654D01*
X163577470Y-108490594D01*
X163581861Y-108491189D01*
X163581865Y-108491189D01*
X163581869Y-108491190D01*
X163594459Y-108491755D01*
X163598515Y-108492024D01*
X163730907Y-108503606D01*
X163749998Y-108505277D01*
X163750000Y-108505277D01*
X163750001Y-108505277D01*
X163754762Y-108504860D01*
X163792843Y-108501528D01*
X163805908Y-108501252D01*
X163806194Y-108501265D01*
X163822788Y-108499017D01*
X163827329Y-108498511D01*
X163967977Y-108486207D01*
X164013652Y-108473968D01*
X164025973Y-108471494D01*
X164028713Y-108471123D01*
X164047173Y-108465124D01*
X164052055Y-108463678D01*
X164179330Y-108429575D01*
X164226128Y-108407752D01*
X164237360Y-108403328D01*
X164242274Y-108401732D01*
X164260809Y-108391757D01*
X164265819Y-108389244D01*
X164377639Y-108337102D01*
X164423563Y-108304945D01*
X164433409Y-108298878D01*
X164440013Y-108295325D01*
X164457145Y-108281662D01*
X164462008Y-108278025D01*
X164556877Y-108211598D01*
X164599716Y-108168758D01*
X164607971Y-108161381D01*
X164615574Y-108155319D01*
X164630116Y-108138673D01*
X164634643Y-108133831D01*
X164711598Y-108056877D01*
X164749004Y-108003455D01*
X164755514Y-107995144D01*
X164763315Y-107986216D01*
X164774525Y-107967452D01*
X164778374Y-107961511D01*
X164837102Y-107877639D01*
X164866665Y-107814240D01*
X164871388Y-107805332D01*
X164878487Y-107793451D01*
X164885924Y-107773633D01*
X164888878Y-107766605D01*
X164929575Y-107679330D01*
X164948942Y-107607050D01*
X164951878Y-107597901D01*
X164957389Y-107583218D01*
X164960989Y-107563379D01*
X164962763Y-107555469D01*
X164986207Y-107467977D01*
X164986207Y-107467975D01*
X164986208Y-107467972D01*
X164990084Y-107423657D01*
X164993167Y-107388418D01*
X164994381Y-107379374D01*
X164997484Y-107362278D01*
X164997513Y-107360941D01*
X164998111Y-107334273D01*
X164998460Y-107327919D01*
X165005277Y-107250000D01*
X164998460Y-107172083D01*
X164998111Y-107165724D01*
X164997484Y-107137724D01*
X164994378Y-107120612D01*
X164993166Y-107111570D01*
X164992407Y-107102897D01*
X164990295Y-107078751D01*
X164986208Y-107032030D01*
X164986207Y-107032027D01*
X164986207Y-107032023D01*
X164962764Y-106944533D01*
X164960983Y-106936589D01*
X164960270Y-106932662D01*
X164957389Y-106916782D01*
X164951875Y-106902092D01*
X164948942Y-106892949D01*
X164929575Y-106820670D01*
X164888876Y-106733391D01*
X164885923Y-106726363D01*
X164878487Y-106706549D01*
X164878484Y-106706544D01*
X164878482Y-106706539D01*
X164871393Y-106694674D01*
X164866655Y-106685736D01*
X164837107Y-106622372D01*
X164837103Y-106622364D01*
X164816705Y-106593233D01*
X164778399Y-106538525D01*
X164774509Y-106532519D01*
X164771204Y-106526988D01*
X164763315Y-106513784D01*
X164755517Y-106504859D01*
X164748995Y-106496532D01*
X164711598Y-106443123D01*
X164694308Y-106425833D01*
X164634647Y-106366171D01*
X164630097Y-106361304D01*
X164615574Y-106344681D01*
X164615572Y-106344679D01*
X164607982Y-106338626D01*
X164599706Y-106331230D01*
X164556877Y-106288402D01*
X164556873Y-106288399D01*
X164462053Y-106222005D01*
X164457112Y-106218311D01*
X164440010Y-106204673D01*
X164433410Y-106201121D01*
X164423544Y-106195041D01*
X164384784Y-106167901D01*
X164377639Y-106162898D01*
X164377638Y-106162897D01*
X164377636Y-106162896D01*
X164302139Y-106127692D01*
X164265834Y-106110762D01*
X164260777Y-106108225D01*
X164242272Y-106098267D01*
X164242271Y-106098266D01*
X164237350Y-106096667D01*
X164226120Y-106092243D01*
X164197248Y-106078780D01*
X164179330Y-106070425D01*
X164179328Y-106070424D01*
X164179325Y-106070423D01*
X164179322Y-106070422D01*
X164052087Y-106036328D01*
X164047123Y-106034858D01*
X164028714Y-106028877D01*
X164028711Y-106028876D01*
X164025969Y-106028505D01*
X164013644Y-106026029D01*
X163989212Y-106019483D01*
X163967977Y-106013793D01*
X163967974Y-106013792D01*
X163967968Y-106013791D01*
X163967973Y-106013791D01*
X163827382Y-106001492D01*
X163822722Y-106000973D01*
X163806194Y-105998734D01*
X163805893Y-105998748D01*
X163792839Y-105998470D01*
X163750004Y-105994723D01*
X163749995Y-105994723D01*
X163598575Y-106007969D01*
X163594397Y-106008246D01*
X163581869Y-106008809D01*
X163577471Y-106009405D01*
X163577463Y-106009346D01*
X163570687Y-106010409D01*
X163536240Y-106013424D01*
X163532023Y-106013793D01*
X163532021Y-106013793D01*
X163372779Y-106056461D01*
X163369197Y-106057349D01*
X163362949Y-106058775D01*
X163359786Y-106059803D01*
X163354834Y-106061270D01*
X163320665Y-106070426D01*
X163122372Y-106162892D01*
X163122364Y-106162896D01*
X162943127Y-106288398D01*
X162788398Y-106443127D01*
X162662896Y-106622364D01*
X162662892Y-106622372D01*
X162570426Y-106820666D01*
X162513791Y-107032030D01*
X162494723Y-107249996D01*
X162494723Y-107250003D01*
X162075500Y-107250003D01*
X162075500Y-106425833D01*
X162094407Y-106367642D01*
X162104490Y-106355835D01*
X163217066Y-105243258D01*
X163223425Y-105237433D01*
X163251145Y-105214174D01*
X163253194Y-105212455D01*
X163272635Y-105178779D01*
X163277251Y-105171533D01*
X163299554Y-105139684D01*
X163299942Y-105138236D01*
X163309838Y-105114345D01*
X163310588Y-105113045D01*
X163317334Y-105074784D01*
X163319204Y-105066348D01*
X163329264Y-105028806D01*
X163325877Y-104990094D01*
X163325500Y-104981465D01*
X163325500Y-102925834D01*
X163344407Y-102867643D01*
X163354496Y-102855830D01*
X164355830Y-101854496D01*
X164410347Y-101826719D01*
X164425834Y-101825500D01*
X165481466Y-101825500D01*
X165490094Y-101825876D01*
X165528807Y-101829264D01*
X165566354Y-101819202D01*
X165574784Y-101817334D01*
X165613045Y-101810588D01*
X165614345Y-101809838D01*
X165638236Y-101799942D01*
X165638464Y-101799880D01*
X165639684Y-101799554D01*
X165671533Y-101777251D01*
X165678779Y-101772635D01*
X165712455Y-101753194D01*
X165737443Y-101723413D01*
X165743254Y-101717070D01*
X167217072Y-100243253D01*
X167223431Y-100237428D01*
X167253194Y-100212455D01*
X167272624Y-100178799D01*
X167277252Y-100171532D01*
X167299554Y-100139684D01*
X167299942Y-100138236D01*
X167309838Y-100114345D01*
X167310586Y-100113048D01*
X167310585Y-100113048D01*
X167310588Y-100113045D01*
X167317341Y-100074743D01*
X167319198Y-100066366D01*
X167329263Y-100028807D01*
X167325877Y-99990102D01*
X167325500Y-99981474D01*
X167325500Y-95518533D01*
X167325877Y-95509904D01*
X167327731Y-95488710D01*
X167329264Y-95471193D01*
X167319204Y-95433652D01*
X167317335Y-95425220D01*
X167310588Y-95386954D01*
X167309840Y-95385659D01*
X167299942Y-95361767D01*
X167299554Y-95360316D01*
X167277264Y-95328482D01*
X167272630Y-95321209D01*
X167253194Y-95287545D01*
X167233705Y-95271192D01*
X167223428Y-95262568D01*
X167217060Y-95256734D01*
X166104496Y-94144170D01*
X166076719Y-94089653D01*
X166075500Y-94074166D01*
X166075500Y-92518522D01*
X166075877Y-92509893D01*
X166079263Y-92471193D01*
X166069201Y-92433642D01*
X166067335Y-92425224D01*
X166060588Y-92386954D01*
X166059840Y-92385659D01*
X166049942Y-92361767D01*
X166049554Y-92360316D01*
X166027257Y-92328473D01*
X166022626Y-92321203D01*
X166003194Y-92287545D01*
X165973434Y-92262573D01*
X165967066Y-92256739D01*
X158743268Y-85032942D01*
X158737434Y-85026574D01*
X158712456Y-84996806D01*
X158678795Y-84977372D01*
X158671512Y-84972732D01*
X158639685Y-84950446D01*
X158639679Y-84950443D01*
X158638224Y-84950054D01*
X158614348Y-84940164D01*
X158613045Y-84939411D01*
X158574779Y-84932664D01*
X158566350Y-84930795D01*
X158541448Y-84924123D01*
X158528807Y-84920736D01*
X158528806Y-84920736D01*
X158528805Y-84920736D01*
X158490095Y-84924123D01*
X158481466Y-84924500D01*
X157055970Y-84924500D01*
X156997779Y-84905593D01*
X156977428Y-84885767D01*
X156959404Y-84862278D01*
X156928282Y-84821718D01*
X156928277Y-84821714D01*
X156928276Y-84821713D01*
X156802838Y-84725462D01*
X156656766Y-84664957D01*
X156656758Y-84664955D01*
X156500001Y-84644318D01*
X156499999Y-84644318D01*
X156343241Y-84664955D01*
X156343233Y-84664957D01*
X156197161Y-84725462D01*
X156197160Y-84725462D01*
X156071723Y-84821713D01*
X156071713Y-84821723D01*
X155975462Y-84947160D01*
X155975462Y-84947161D01*
X155914957Y-85093233D01*
X155914955Y-85093241D01*
X155894318Y-85249999D01*
X155894318Y-85250000D01*
X155914955Y-85406758D01*
X155914957Y-85406766D01*
X155975462Y-85552838D01*
X155975462Y-85552839D01*
X156037598Y-85633816D01*
X156071718Y-85678282D01*
X156197159Y-85774536D01*
X156197160Y-85774536D01*
X156197161Y-85774537D01*
X156270611Y-85804961D01*
X156343238Y-85835044D01*
X156460809Y-85850522D01*
X156499999Y-85855682D01*
X156500000Y-85855682D01*
X156500001Y-85855682D01*
X156531352Y-85851554D01*
X156656762Y-85835044D01*
X156802841Y-85774536D01*
X156928282Y-85678282D01*
X156977428Y-85614232D01*
X157027852Y-85579577D01*
X157055970Y-85575500D01*
X158324166Y-85575500D01*
X158382357Y-85594407D01*
X158394170Y-85604496D01*
X161545170Y-88755496D01*
X161572947Y-88810013D01*
X161563376Y-88870445D01*
X161520111Y-88913710D01*
X161475166Y-88924500D01*
X157805970Y-88924500D01*
X157747779Y-88905593D01*
X157727428Y-88885767D01*
X157678285Y-88821722D01*
X157678282Y-88821718D01*
X157678277Y-88821714D01*
X157678276Y-88821713D01*
X157607104Y-88767101D01*
X157552841Y-88725464D01*
X157552840Y-88725463D01*
X157552838Y-88725462D01*
X157406766Y-88664957D01*
X157406758Y-88664955D01*
X157250001Y-88644318D01*
X157249999Y-88644318D01*
X157093241Y-88664955D01*
X157093233Y-88664957D01*
X156947161Y-88725462D01*
X156947160Y-88725462D01*
X156821723Y-88821713D01*
X156821713Y-88821723D01*
X156725462Y-88947160D01*
X156725462Y-88947161D01*
X156664957Y-89093233D01*
X156664955Y-89093241D01*
X156644318Y-89249999D01*
X156644318Y-89250000D01*
X156664956Y-89406762D01*
X156719157Y-89537614D01*
X156723958Y-89598611D01*
X156691988Y-89650780D01*
X156635461Y-89674195D01*
X156627693Y-89674500D01*
X155018534Y-89674500D01*
X155009905Y-89674123D01*
X154971194Y-89670736D01*
X154971187Y-89670736D01*
X154933649Y-89680794D01*
X154925223Y-89682662D01*
X154886960Y-89689410D01*
X154886948Y-89689414D01*
X154885640Y-89690170D01*
X154861786Y-89700051D01*
X154860324Y-89700442D01*
X154860317Y-89700445D01*
X154860316Y-89700446D01*
X154828475Y-89722740D01*
X154821205Y-89727371D01*
X154787545Y-89746805D01*
X154762569Y-89776570D01*
X154756736Y-89782936D01*
X153412966Y-91126706D01*
X153358449Y-91154483D01*
X153330040Y-91154855D01*
X153250001Y-91144318D01*
X153249999Y-91144318D01*
X153093241Y-91164955D01*
X153093233Y-91164957D01*
X152947161Y-91225462D01*
X152947160Y-91225462D01*
X152821723Y-91321713D01*
X152821713Y-91321723D01*
X152725462Y-91447160D01*
X152725462Y-91447161D01*
X152664957Y-91593233D01*
X152664955Y-91593241D01*
X152644318Y-91749999D01*
X152644318Y-91750000D01*
X152664955Y-91906758D01*
X152664957Y-91906766D01*
X152725462Y-92052838D01*
X152725462Y-92052839D01*
X152811493Y-92164957D01*
X152821718Y-92178282D01*
X152947159Y-92274536D01*
X152947160Y-92274536D01*
X152947161Y-92274537D01*
X153077410Y-92328488D01*
X153093238Y-92335044D01*
X153210809Y-92350522D01*
X153249999Y-92355682D01*
X153250000Y-92355682D01*
X153250001Y-92355682D01*
X153281352Y-92351554D01*
X153406762Y-92335044D01*
X153552841Y-92274536D01*
X153678282Y-92178282D01*
X153774536Y-92052841D01*
X153835044Y-91906762D01*
X153855682Y-91750000D01*
X153845143Y-91669956D01*
X153856292Y-91609799D01*
X153873288Y-91587036D01*
X155105830Y-90354496D01*
X155160347Y-90326719D01*
X155175834Y-90325500D01*
X159824166Y-90325500D01*
X159882357Y-90344407D01*
X159894170Y-90354496D01*
X163145504Y-93605830D01*
X163173281Y-93660347D01*
X163174500Y-93675834D01*
X163174500Y-96627692D01*
X163155593Y-96685883D01*
X163106093Y-96721847D01*
X163044907Y-96721847D01*
X163037615Y-96719156D01*
X162906767Y-96664957D01*
X162906758Y-96664955D01*
X162750001Y-96644318D01*
X162749999Y-96644318D01*
X162593241Y-96664955D01*
X162593233Y-96664957D01*
X162447161Y-96725462D01*
X162447160Y-96725462D01*
X162321723Y-96821713D01*
X162321713Y-96821723D01*
X162225462Y-96947160D01*
X162225462Y-96947161D01*
X162164957Y-97093233D01*
X162164955Y-97093241D01*
X162144318Y-97250000D01*
X162154855Y-97330040D01*
X162143705Y-97390201D01*
X162126706Y-97412965D01*
X161994504Y-97545168D01*
X161939987Y-97572946D01*
X161879555Y-97563375D01*
X161836291Y-97520110D01*
X161825500Y-97475165D01*
X161825500Y-93768533D01*
X161825877Y-93759904D01*
X161826168Y-93756574D01*
X161829264Y-93721193D01*
X161819204Y-93683652D01*
X161817335Y-93675220D01*
X161810588Y-93636954D01*
X161809840Y-93635659D01*
X161799942Y-93611767D01*
X161799554Y-93610316D01*
X161777264Y-93578482D01*
X161772630Y-93571209D01*
X161753194Y-93537545D01*
X161730523Y-93518522D01*
X161723428Y-93512568D01*
X161717060Y-93506734D01*
X161123292Y-92912966D01*
X161095515Y-92858449D01*
X161095143Y-92830046D01*
X161105682Y-92750000D01*
X161085044Y-92593238D01*
X161037441Y-92478314D01*
X161024537Y-92447161D01*
X161024537Y-92447160D01*
X160928286Y-92321723D01*
X160928285Y-92321722D01*
X160928282Y-92321718D01*
X160928277Y-92321714D01*
X160928276Y-92321713D01*
X160853340Y-92264213D01*
X160802841Y-92225464D01*
X160802840Y-92225463D01*
X160802838Y-92225462D01*
X160656766Y-92164957D01*
X160656758Y-92164955D01*
X160500001Y-92144318D01*
X160499999Y-92144318D01*
X160343241Y-92164955D01*
X160343233Y-92164957D01*
X160197161Y-92225462D01*
X160197160Y-92225462D01*
X160071723Y-92321713D01*
X160071713Y-92321723D01*
X159975462Y-92447160D01*
X159975462Y-92447161D01*
X159914957Y-92593233D01*
X159914955Y-92593241D01*
X159894318Y-92749999D01*
X159894318Y-92750000D01*
X159914955Y-92906758D01*
X159914957Y-92906766D01*
X159975462Y-93052838D01*
X159975462Y-93052839D01*
X160071713Y-93178276D01*
X160071718Y-93178282D01*
X160197159Y-93274536D01*
X160197160Y-93274536D01*
X160197161Y-93274537D01*
X160318859Y-93324946D01*
X160343238Y-93335044D01*
X160500000Y-93355682D01*
X160580041Y-93345143D01*
X160640199Y-93356292D01*
X160662966Y-93373292D01*
X161145504Y-93855830D01*
X161173281Y-93910347D01*
X161174500Y-93925834D01*
X161174500Y-104074166D01*
X161155593Y-104132357D01*
X161145503Y-104144170D01*
X161019039Y-104270633D01*
X160964523Y-104298410D01*
X160904091Y-104288838D01*
X160860826Y-104245574D01*
X160850883Y-104213551D01*
X160848725Y-104197161D01*
X160835044Y-104093238D01*
X160796424Y-104000001D01*
X160774537Y-103947161D01*
X160774537Y-103947160D01*
X160678286Y-103821723D01*
X160678285Y-103821722D01*
X160678282Y-103821718D01*
X160678277Y-103821714D01*
X160678276Y-103821713D01*
X160597570Y-103759786D01*
X160552841Y-103725464D01*
X160552840Y-103725463D01*
X160552838Y-103725462D01*
X160406766Y-103664957D01*
X160406758Y-103664955D01*
X160250001Y-103644318D01*
X160249999Y-103644318D01*
X160093241Y-103664955D01*
X160093233Y-103664957D01*
X159947161Y-103725462D01*
X159947160Y-103725462D01*
X159821723Y-103821713D01*
X159821714Y-103821722D01*
X159772572Y-103885767D01*
X159722148Y-103920423D01*
X159694030Y-103924500D01*
X156768534Y-103924500D01*
X156759905Y-103924123D01*
X156721194Y-103920736D01*
X156721187Y-103920736D01*
X156683649Y-103930794D01*
X156675223Y-103932662D01*
X156636960Y-103939410D01*
X156636948Y-103939414D01*
X156635640Y-103940170D01*
X156611786Y-103950051D01*
X156610324Y-103950442D01*
X156610317Y-103950445D01*
X156610316Y-103950446D01*
X156578475Y-103972740D01*
X156571205Y-103977371D01*
X156537545Y-103996805D01*
X156512569Y-104026570D01*
X156506736Y-104032936D01*
X155744504Y-104795169D01*
X155689987Y-104822946D01*
X155629555Y-104813375D01*
X155586290Y-104770110D01*
X155575500Y-104725165D01*
X155575500Y-98305970D01*
X155594407Y-98247779D01*
X155614233Y-98227428D01*
X155678282Y-98178282D01*
X155774536Y-98052841D01*
X155835044Y-97906762D01*
X155855682Y-97750000D01*
X155835044Y-97593238D01*
X155804753Y-97520110D01*
X155774537Y-97447161D01*
X155774537Y-97447160D01*
X155678286Y-97321723D01*
X155678285Y-97321722D01*
X155678282Y-97321718D01*
X155678277Y-97321714D01*
X155678276Y-97321713D01*
X155552838Y-97225462D01*
X155406766Y-97164957D01*
X155406758Y-97164955D01*
X155250001Y-97144318D01*
X155249999Y-97144318D01*
X155093241Y-97164955D01*
X155093233Y-97164957D01*
X154947161Y-97225462D01*
X154947160Y-97225462D01*
X154821723Y-97321713D01*
X154821713Y-97321723D01*
X154725462Y-97447160D01*
X154725462Y-97447161D01*
X154664957Y-97593233D01*
X154664955Y-97593241D01*
X154644318Y-97749999D01*
X154644318Y-97750000D01*
X154664955Y-97906758D01*
X154664957Y-97906766D01*
X154725462Y-98052838D01*
X154725462Y-98052839D01*
X154788373Y-98134826D01*
X154821718Y-98178282D01*
X154882817Y-98225165D01*
X154885767Y-98227428D01*
X154920423Y-98277852D01*
X154924500Y-98305970D01*
X154924500Y-106627692D01*
X154905593Y-106685883D01*
X154856093Y-106721847D01*
X154794907Y-106721847D01*
X154787615Y-106719156D01*
X154656767Y-106664957D01*
X154656758Y-106664955D01*
X154500001Y-106644318D01*
X154499999Y-106644318D01*
X154343241Y-106664955D01*
X154343233Y-106664957D01*
X154197161Y-106725462D01*
X154197160Y-106725462D01*
X154071723Y-106821713D01*
X154071714Y-106821722D01*
X154022572Y-106885767D01*
X153972148Y-106920423D01*
X153944030Y-106924500D01*
X153018534Y-106924500D01*
X153009905Y-106924123D01*
X152971194Y-106920736D01*
X152971187Y-106920736D01*
X152933649Y-106930794D01*
X152925223Y-106932662D01*
X152886960Y-106939410D01*
X152886948Y-106939414D01*
X152885640Y-106940170D01*
X152861786Y-106950051D01*
X152860324Y-106950442D01*
X152860317Y-106950445D01*
X152860316Y-106950446D01*
X152828475Y-106972740D01*
X152821205Y-106977371D01*
X152787545Y-106996805D01*
X152762569Y-107026570D01*
X152756736Y-107032936D01*
X151994504Y-107795169D01*
X151939987Y-107822946D01*
X151879555Y-107813375D01*
X151836290Y-107770110D01*
X151825500Y-107725165D01*
X151825500Y-101445596D01*
X151844407Y-101387405D01*
X151893907Y-101351441D01*
X151937422Y-101347443D01*
X152000000Y-101355682D01*
X152156762Y-101335044D01*
X152302841Y-101274536D01*
X152428282Y-101178282D01*
X152524536Y-101052841D01*
X152585044Y-100906762D01*
X152605682Y-100750000D01*
X152604583Y-100741656D01*
X152595837Y-100675220D01*
X152585044Y-100593238D01*
X152580780Y-100582943D01*
X152524537Y-100447161D01*
X152524537Y-100447160D01*
X152428286Y-100321723D01*
X152428285Y-100321722D01*
X152428282Y-100321718D01*
X152428277Y-100321714D01*
X152428276Y-100321713D01*
X152322056Y-100240208D01*
X152302841Y-100225464D01*
X152302840Y-100225463D01*
X152302838Y-100225462D01*
X152156766Y-100164957D01*
X152156758Y-100164955D01*
X152000001Y-100144318D01*
X151999999Y-100144318D01*
X151843241Y-100164955D01*
X151843233Y-100164957D01*
X151697161Y-100225462D01*
X151697160Y-100225462D01*
X151571723Y-100321713D01*
X151571713Y-100321723D01*
X151475462Y-100447160D01*
X151475462Y-100447161D01*
X151414957Y-100593233D01*
X151414955Y-100593241D01*
X151394318Y-100749999D01*
X151394318Y-100750000D01*
X151404855Y-100830040D01*
X151393705Y-100890201D01*
X151376706Y-100912966D01*
X151282940Y-101006732D01*
X151276574Y-101012564D01*
X151246807Y-101037542D01*
X151246805Y-101037544D01*
X151227371Y-101071205D01*
X151222740Y-101078475D01*
X151200446Y-101110316D01*
X151200446Y-101110317D01*
X151200442Y-101110324D01*
X151200051Y-101111786D01*
X151190170Y-101135640D01*
X151189414Y-101136948D01*
X151189410Y-101136960D01*
X151182662Y-101175223D01*
X151180794Y-101183649D01*
X151170736Y-101221187D01*
X151170736Y-101221194D01*
X151174123Y-101259904D01*
X151174500Y-101268533D01*
X151174500Y-107925980D01*
X151155593Y-107984171D01*
X151106093Y-108020135D01*
X151088423Y-108024133D01*
X150968240Y-108039955D01*
X150968233Y-108039957D01*
X150822161Y-108100462D01*
X150822160Y-108100462D01*
X150696723Y-108196713D01*
X150696713Y-108196723D01*
X150631538Y-108281662D01*
X150600803Y-108321718D01*
X150596514Y-108327307D01*
X150595413Y-108326462D01*
X150555273Y-108362590D01*
X150494421Y-108368972D01*
X150441440Y-108338368D01*
X150436484Y-108332407D01*
X150428281Y-108321717D01*
X150364232Y-108272570D01*
X150329577Y-108222145D01*
X150325500Y-108194028D01*
X150325500Y-100768533D01*
X150325877Y-100759904D01*
X150329264Y-100721193D01*
X150319204Y-100683652D01*
X150317335Y-100675220D01*
X150310588Y-100636954D01*
X150309840Y-100635659D01*
X150299942Y-100611767D01*
X150299554Y-100610316D01*
X150287592Y-100593233D01*
X150277264Y-100578482D01*
X150272630Y-100571209D01*
X150253194Y-100537545D01*
X150223428Y-100512568D01*
X150217060Y-100506734D01*
X147243268Y-97532942D01*
X147237434Y-97526574D01*
X147212456Y-97496806D01*
X147178795Y-97477372D01*
X147171512Y-97472732D01*
X147139685Y-97450446D01*
X147139679Y-97450443D01*
X147138224Y-97450054D01*
X147114348Y-97440164D01*
X147113045Y-97439411D01*
X147074779Y-97432664D01*
X147066350Y-97430795D01*
X147041448Y-97424123D01*
X147028807Y-97420736D01*
X147028806Y-97420736D01*
X147028805Y-97420736D01*
X146990095Y-97424123D01*
X146981466Y-97424500D01*
X145555970Y-97424500D01*
X145497779Y-97405593D01*
X145477428Y-97385767D01*
X145428285Y-97321722D01*
X145428282Y-97321718D01*
X145428277Y-97321714D01*
X145428276Y-97321713D01*
X145302838Y-97225462D01*
X145156766Y-97164957D01*
X145156758Y-97164955D01*
X145000001Y-97144318D01*
X144999999Y-97144318D01*
X144843241Y-97164955D01*
X144843233Y-97164957D01*
X144697161Y-97225462D01*
X144697160Y-97225462D01*
X144571723Y-97321713D01*
X144571713Y-97321723D01*
X144475462Y-97447160D01*
X144475462Y-97447161D01*
X144414957Y-97593233D01*
X144414955Y-97593241D01*
X144394318Y-97749999D01*
X144394318Y-97750000D01*
X144414955Y-97906758D01*
X144414957Y-97906766D01*
X144475462Y-98052838D01*
X144475462Y-98052839D01*
X144538373Y-98134826D01*
X144571718Y-98178282D01*
X144697159Y-98274536D01*
X144697160Y-98274536D01*
X144697161Y-98274537D01*
X144746971Y-98295169D01*
X144843238Y-98335044D01*
X144960809Y-98350522D01*
X144999999Y-98355682D01*
X145000000Y-98355682D01*
X145000001Y-98355682D01*
X145031352Y-98351554D01*
X145156762Y-98335044D01*
X145302841Y-98274536D01*
X145428282Y-98178282D01*
X145477428Y-98114232D01*
X145527852Y-98079577D01*
X145555970Y-98075500D01*
X146824166Y-98075500D01*
X146882357Y-98094407D01*
X146894170Y-98104496D01*
X149645504Y-100855830D01*
X149673281Y-100910347D01*
X149674500Y-100925834D01*
X149674500Y-108194028D01*
X149655593Y-108252219D01*
X149635768Y-108272570D01*
X149571718Y-108321717D01*
X149475462Y-108447160D01*
X149475462Y-108447161D01*
X149414957Y-108593233D01*
X149414955Y-108593241D01*
X149394318Y-108749999D01*
X149394318Y-108750000D01*
X149413342Y-108894508D01*
X149414956Y-108906762D01*
X149466127Y-109030300D01*
X149469157Y-109037614D01*
X149473958Y-109098611D01*
X149441988Y-109150780D01*
X149385461Y-109174195D01*
X149377693Y-109174500D01*
X147425834Y-109174500D01*
X147367643Y-109155593D01*
X147355830Y-109145504D01*
X143104496Y-104894170D01*
X143076719Y-104839653D01*
X143075500Y-104824166D01*
X143075500Y-104268533D01*
X143075877Y-104259904D01*
X143079264Y-104221193D01*
X143069204Y-104183652D01*
X143067335Y-104175220D01*
X143060588Y-104136954D01*
X143059840Y-104135659D01*
X143049942Y-104111767D01*
X143049554Y-104110316D01*
X143027264Y-104078482D01*
X143022630Y-104071209D01*
X143003194Y-104037545D01*
X142997701Y-104032936D01*
X142973428Y-104012568D01*
X142967060Y-104006734D01*
X141743268Y-102782942D01*
X141737434Y-102776574D01*
X141712456Y-102746806D01*
X141678795Y-102727372D01*
X141671512Y-102722732D01*
X141639685Y-102700446D01*
X141639679Y-102700443D01*
X141638224Y-102700054D01*
X141614348Y-102690164D01*
X141613045Y-102689411D01*
X141574779Y-102682664D01*
X141566350Y-102680795D01*
X141541448Y-102674123D01*
X141528807Y-102670736D01*
X141528806Y-102670736D01*
X141528805Y-102670736D01*
X141490095Y-102674123D01*
X141481466Y-102674500D01*
X140274834Y-102674500D01*
X140216643Y-102655593D01*
X140180679Y-102606093D01*
X140180679Y-102544907D01*
X140204830Y-102505496D01*
X140564822Y-102145504D01*
X141467072Y-101243253D01*
X141473431Y-101237428D01*
X141503194Y-101212455D01*
X141522624Y-101178799D01*
X141527252Y-101171532D01*
X141549554Y-101139684D01*
X141549942Y-101138236D01*
X141559838Y-101114345D01*
X141560586Y-101113048D01*
X141560585Y-101113048D01*
X141560588Y-101113045D01*
X141567341Y-101074743D01*
X141569198Y-101066366D01*
X141579263Y-101028807D01*
X141575877Y-100990102D01*
X141575500Y-100981474D01*
X141575500Y-95802524D01*
X141575877Y-95793895D01*
X141579263Y-95755193D01*
X141569201Y-95717642D01*
X141567335Y-95709224D01*
X141565954Y-95701392D01*
X141560588Y-95670955D01*
X141560588Y-95670954D01*
X141559840Y-95669659D01*
X141549942Y-95645767D01*
X141549554Y-95644316D01*
X141527257Y-95612473D01*
X141522626Y-95605203D01*
X141503194Y-95571545D01*
X141473434Y-95546573D01*
X141467066Y-95540739D01*
X139689268Y-93762942D01*
X139683434Y-93756574D01*
X139658456Y-93726806D01*
X139624795Y-93707372D01*
X139617512Y-93702732D01*
X139585685Y-93680446D01*
X139585679Y-93680443D01*
X139584224Y-93680054D01*
X139560348Y-93670164D01*
X139559045Y-93669411D01*
X139520779Y-93662664D01*
X139512350Y-93660795D01*
X139487448Y-93654123D01*
X139474807Y-93650736D01*
X139474806Y-93650736D01*
X139474805Y-93650736D01*
X139436095Y-93654123D01*
X139427466Y-93654500D01*
X139239970Y-93654500D01*
X139181779Y-93635593D01*
X139161428Y-93615767D01*
X139157245Y-93610316D01*
X139112282Y-93551718D01*
X139112277Y-93551714D01*
X139112276Y-93551713D01*
X138986838Y-93455462D01*
X138840766Y-93394957D01*
X138840758Y-93394955D01*
X138684001Y-93374318D01*
X138683999Y-93374318D01*
X138527241Y-93394955D01*
X138527233Y-93394957D01*
X138381161Y-93455462D01*
X138381160Y-93455462D01*
X138255723Y-93551713D01*
X138255713Y-93551723D01*
X138159462Y-93677160D01*
X138159462Y-93677161D01*
X138098957Y-93823233D01*
X138098955Y-93823241D01*
X138078318Y-93979999D01*
X138078318Y-93980000D01*
X138098955Y-94136758D01*
X138098957Y-94136766D01*
X138159462Y-94282838D01*
X138159462Y-94282839D01*
X138240327Y-94388224D01*
X138255718Y-94408282D01*
X138381159Y-94504536D01*
X138527238Y-94565044D01*
X138641129Y-94580038D01*
X138683999Y-94585682D01*
X138684000Y-94585682D01*
X138684001Y-94585682D01*
X138715352Y-94581554D01*
X138840762Y-94565044D01*
X138986841Y-94504536D01*
X139112282Y-94408282D01*
X139161428Y-94344232D01*
X139211852Y-94309577D01*
X139239970Y-94305500D01*
X139270166Y-94305500D01*
X139328357Y-94324407D01*
X139340170Y-94334496D01*
X140895504Y-95889830D01*
X140923281Y-95944347D01*
X140924500Y-95959834D01*
X140924500Y-100824165D01*
X140905593Y-100882356D01*
X140895504Y-100894169D01*
X139644170Y-102145504D01*
X139589653Y-102173281D01*
X139574166Y-102174500D01*
X138518534Y-102174500D01*
X138509905Y-102174123D01*
X138471194Y-102170736D01*
X138471187Y-102170736D01*
X138433649Y-102180794D01*
X138425223Y-102182662D01*
X138386960Y-102189410D01*
X138386948Y-102189414D01*
X138385640Y-102190170D01*
X138361786Y-102200051D01*
X138360324Y-102200442D01*
X138360317Y-102200445D01*
X138360316Y-102200446D01*
X138328475Y-102222740D01*
X138321205Y-102227371D01*
X138287545Y-102246805D01*
X138262569Y-102276570D01*
X138256736Y-102282936D01*
X137282940Y-103256732D01*
X137276574Y-103262564D01*
X137246807Y-103287542D01*
X137246805Y-103287544D01*
X137227371Y-103321205D01*
X137222740Y-103328475D01*
X137200446Y-103360316D01*
X137200446Y-103360317D01*
X137200442Y-103360324D01*
X137200051Y-103361786D01*
X137190170Y-103385640D01*
X137189414Y-103386948D01*
X137189410Y-103386960D01*
X137182662Y-103425223D01*
X137180794Y-103433649D01*
X137170736Y-103471187D01*
X137170736Y-103471194D01*
X137174123Y-103509904D01*
X137174500Y-103518533D01*
X137174500Y-104481465D01*
X137174123Y-104490094D01*
X137170736Y-104528805D01*
X137170736Y-104528806D01*
X133918792Y-104528806D01*
X133744386Y-103877916D01*
X133743288Y-103873389D01*
X133567232Y-103064068D01*
X133566349Y-103059482D01*
X133429011Y-102242765D01*
X133428341Y-102238107D01*
X133427057Y-102227371D01*
X133330018Y-101415774D01*
X133329571Y-101411085D01*
X133327693Y-101384826D01*
X133270486Y-100584973D01*
X133270265Y-100580332D01*
X133250556Y-99752352D01*
X133250556Y-99747644D01*
X133251936Y-99689679D01*
X133260073Y-99347824D01*
X134199999Y-99347824D01*
X134206401Y-99407370D01*
X134206403Y-99407381D01*
X134256646Y-99542088D01*
X134256647Y-99542090D01*
X134342807Y-99657184D01*
X134342815Y-99657192D01*
X134457909Y-99743352D01*
X134457911Y-99743353D01*
X134592618Y-99793596D01*
X134592629Y-99793598D01*
X134652176Y-99800000D01*
X135749999Y-99800000D01*
X135750000Y-99799999D01*
X136250000Y-99799999D01*
X136250001Y-99800000D01*
X137347824Y-99800000D01*
X137407370Y-99793598D01*
X137407381Y-99793596D01*
X137542088Y-99743353D01*
X137542090Y-99743352D01*
X137657184Y-99657192D01*
X137657192Y-99657184D01*
X137743352Y-99542090D01*
X137743353Y-99542088D01*
X137793596Y-99407381D01*
X137793598Y-99407370D01*
X137800000Y-99347824D01*
X137800000Y-97750001D01*
X137799999Y-97750000D01*
X136250001Y-97750000D01*
X136250000Y-97750001D01*
X136250000Y-99799999D01*
X135750000Y-99799999D01*
X135750000Y-97750001D01*
X135749999Y-97750000D01*
X134200001Y-97750000D01*
X134200000Y-97750001D01*
X134200000Y-99347824D01*
X134199999Y-99347824D01*
X133260073Y-99347824D01*
X133270265Y-98919665D01*
X133270486Y-98915028D01*
X133329571Y-98088908D01*
X133330019Y-98084224D01*
X133428342Y-97261879D01*
X133429012Y-97257228D01*
X133430228Y-97249999D01*
X134200000Y-97249999D01*
X134200001Y-97250000D01*
X135749999Y-97250000D01*
X135750000Y-97249999D01*
X136250000Y-97249999D01*
X136250001Y-97250000D01*
X137799999Y-97250000D01*
X137800000Y-97249999D01*
X137800000Y-95652175D01*
X137799999Y-95652165D01*
X137793598Y-95592629D01*
X137793596Y-95592618D01*
X137743353Y-95457911D01*
X137743352Y-95457909D01*
X137657192Y-95342815D01*
X137657184Y-95342807D01*
X137542090Y-95256647D01*
X137542088Y-95256646D01*
X137407381Y-95206403D01*
X137407370Y-95206401D01*
X137347824Y-95200000D01*
X136250001Y-95200000D01*
X136250000Y-95200001D01*
X136250000Y-97249999D01*
X135750000Y-97249999D01*
X135750000Y-95200001D01*
X135749999Y-95200000D01*
X134652176Y-95200000D01*
X134592629Y-95206401D01*
X134592618Y-95206403D01*
X134457911Y-95256646D01*
X134457909Y-95256647D01*
X134342815Y-95342807D01*
X134342807Y-95342815D01*
X134256647Y-95457909D01*
X134256646Y-95457911D01*
X134206403Y-95592618D01*
X134206401Y-95592629D01*
X134200001Y-95652165D01*
X134200000Y-95652175D01*
X134200000Y-97249999D01*
X133430228Y-97249999D01*
X133566350Y-96440509D01*
X133567230Y-96435938D01*
X133743290Y-95626600D01*
X133744384Y-95622093D01*
X133958754Y-94822054D01*
X133960063Y-94817598D01*
X134212244Y-94028707D01*
X134213780Y-94024269D01*
X134214414Y-94022570D01*
X134503215Y-93248262D01*
X134504929Y-93243981D01*
X134830981Y-92482578D01*
X134832930Y-92478314D01*
X134858423Y-92425834D01*
X135194802Y-91733367D01*
X135196933Y-91729232D01*
X135593873Y-91002291D01*
X135596206Y-90998251D01*
X136027278Y-90291033D01*
X136029772Y-90287152D01*
X136494020Y-89601225D01*
X136496710Y-89597447D01*
X136993063Y-88934397D01*
X136995974Y-88930698D01*
X136997505Y-88928844D01*
X137523281Y-88292055D01*
X137526329Y-88288538D01*
X138083436Y-87675699D01*
X138086646Y-87672331D01*
X138672331Y-87086646D01*
X138675699Y-87083436D01*
X139288538Y-86526329D01*
X139292055Y-86523281D01*
X139930701Y-85995970D01*
X139934401Y-85993061D01*
X139936146Y-85991755D01*
X140597447Y-85496710D01*
X140601225Y-85494020D01*
X141287152Y-85029772D01*
X141291033Y-85027278D01*
X141745931Y-84750003D01*
X149494723Y-84750003D01*
X149513791Y-84967969D01*
X149513792Y-84967976D01*
X149513793Y-84967977D01*
X149570425Y-85179330D01*
X149662898Y-85377639D01*
X149683290Y-85406762D01*
X149785575Y-85552841D01*
X149788402Y-85556877D01*
X149943123Y-85711598D01*
X150122361Y-85837102D01*
X150320670Y-85929575D01*
X150354846Y-85938732D01*
X150359801Y-85940201D01*
X150362939Y-85941220D01*
X150362943Y-85941220D01*
X150362948Y-85941223D01*
X150369200Y-85942650D01*
X150372773Y-85943536D01*
X150532023Y-85986207D01*
X150570694Y-85989590D01*
X150577461Y-85990654D01*
X150577470Y-85990594D01*
X150581861Y-85991189D01*
X150581865Y-85991189D01*
X150581869Y-85991190D01*
X150594459Y-85991755D01*
X150598515Y-85992024D01*
X150730907Y-86003606D01*
X150749998Y-86005277D01*
X150750000Y-86005277D01*
X150750001Y-86005277D01*
X150754762Y-86004860D01*
X150792843Y-86001528D01*
X150805908Y-86001252D01*
X150806194Y-86001265D01*
X150822788Y-85999017D01*
X150827329Y-85998511D01*
X150967977Y-85986207D01*
X151013652Y-85973968D01*
X151025973Y-85971494D01*
X151028713Y-85971123D01*
X151047173Y-85965124D01*
X151052055Y-85963678D01*
X151179330Y-85929575D01*
X151226128Y-85907752D01*
X151237360Y-85903328D01*
X151242274Y-85901732D01*
X151260809Y-85891757D01*
X151265819Y-85889244D01*
X151377639Y-85837102D01*
X151423563Y-85804945D01*
X151433409Y-85798878D01*
X151440013Y-85795325D01*
X151457145Y-85781662D01*
X151462008Y-85778025D01*
X151556877Y-85711598D01*
X151599716Y-85668758D01*
X151607971Y-85661381D01*
X151615574Y-85655319D01*
X151630116Y-85638673D01*
X151634643Y-85633831D01*
X151711598Y-85556877D01*
X151749004Y-85503455D01*
X151755514Y-85495144D01*
X151763315Y-85486216D01*
X151774525Y-85467452D01*
X151778374Y-85461511D01*
X151837102Y-85377639D01*
X151866665Y-85314240D01*
X151871388Y-85305332D01*
X151878487Y-85293451D01*
X151885924Y-85273633D01*
X151888873Y-85266615D01*
X151929575Y-85179330D01*
X151948942Y-85107050D01*
X151951878Y-85097901D01*
X151957386Y-85083225D01*
X151957389Y-85083218D01*
X151960989Y-85063379D01*
X151962763Y-85055469D01*
X151986207Y-84967977D01*
X151986207Y-84967975D01*
X151986208Y-84967972D01*
X151993166Y-84888428D01*
X151994381Y-84879374D01*
X151997484Y-84862278D01*
X151997513Y-84860941D01*
X151998111Y-84834273D01*
X151998460Y-84827919D01*
X152005277Y-84750000D01*
X151998460Y-84672083D01*
X151998111Y-84665724D01*
X151997484Y-84637724D01*
X151994378Y-84620612D01*
X151993166Y-84611570D01*
X151991715Y-84594988D01*
X151986207Y-84532023D01*
X151962764Y-84444533D01*
X151960983Y-84436589D01*
X151957389Y-84416784D01*
X151957388Y-84416779D01*
X151951878Y-84402099D01*
X151948942Y-84392949D01*
X151929575Y-84320670D01*
X151888876Y-84233391D01*
X151885923Y-84226363D01*
X151878487Y-84206549D01*
X151878484Y-84206544D01*
X151878482Y-84206539D01*
X151871393Y-84194674D01*
X151866655Y-84185736D01*
X151837107Y-84122372D01*
X151837103Y-84122364D01*
X151778399Y-84038525D01*
X151774509Y-84032519D01*
X151771204Y-84026988D01*
X151763315Y-84013784D01*
X151755517Y-84004859D01*
X151748995Y-83996532D01*
X151711598Y-83943123D01*
X151711597Y-83943122D01*
X151634647Y-83866171D01*
X151630097Y-83861304D01*
X151615574Y-83844681D01*
X151615572Y-83844679D01*
X151607982Y-83838626D01*
X151599706Y-83831230D01*
X151556877Y-83788402D01*
X151556873Y-83788399D01*
X151462053Y-83722005D01*
X151457112Y-83718311D01*
X151440010Y-83704673D01*
X151433410Y-83701121D01*
X151423544Y-83695041D01*
X151377636Y-83662896D01*
X151321574Y-83636754D01*
X151265834Y-83610762D01*
X151260777Y-83608225D01*
X151242272Y-83598267D01*
X151242271Y-83598266D01*
X151237350Y-83596667D01*
X151226120Y-83592243D01*
X151197248Y-83578780D01*
X151179330Y-83570425D01*
X151179328Y-83570424D01*
X151179325Y-83570423D01*
X151179322Y-83570422D01*
X151052087Y-83536328D01*
X151047123Y-83534858D01*
X151028714Y-83528877D01*
X151028711Y-83528876D01*
X151025969Y-83528505D01*
X151013644Y-83526029D01*
X150987204Y-83518945D01*
X150967977Y-83513793D01*
X150967974Y-83513792D01*
X150967968Y-83513791D01*
X150967973Y-83513791D01*
X150827382Y-83501492D01*
X150822722Y-83500973D01*
X150806194Y-83498734D01*
X150805893Y-83498748D01*
X150792839Y-83498470D01*
X150750004Y-83494723D01*
X150749995Y-83494723D01*
X150598575Y-83507969D01*
X150594397Y-83508246D01*
X150581869Y-83508809D01*
X150577471Y-83509405D01*
X150577463Y-83509346D01*
X150570687Y-83510409D01*
X150536240Y-83513424D01*
X150532023Y-83513793D01*
X150532021Y-83513793D01*
X150372779Y-83556461D01*
X150369197Y-83557349D01*
X150362949Y-83558775D01*
X150359786Y-83559803D01*
X150354834Y-83561270D01*
X150320665Y-83570426D01*
X150122372Y-83662892D01*
X150122364Y-83662896D01*
X149943127Y-83788398D01*
X149788398Y-83943127D01*
X149662896Y-84122364D01*
X149662892Y-84122372D01*
X149570426Y-84320666D01*
X149513791Y-84532030D01*
X149494723Y-84749996D01*
X149494723Y-84750003D01*
X141745931Y-84750003D01*
X141998251Y-84596206D01*
X142002291Y-84593873D01*
X142729232Y-84196933D01*
X142733367Y-84194802D01*
X143478320Y-83832927D01*
X143482600Y-83830972D01*
X144238262Y-83507378D01*
X144238531Y-83507264D01*
X144246235Y-83504046D01*
X144249609Y-83502713D01*
X145009344Y-83219346D01*
X145009654Y-83219233D01*
X145028927Y-83212247D01*
X145032403Y-83211062D01*
X145793971Y-82967616D01*
X145794420Y-82967475D01*
X145824656Y-82958129D01*
X145828168Y-82957116D01*
X146590511Y-82752846D01*
X146590851Y-82752757D01*
X146631689Y-82742251D01*
X146635105Y-82741440D01*
X147396984Y-82575704D01*
X147397529Y-82575589D01*
X147447933Y-82565170D01*
X147451484Y-82564504D01*
X148211610Y-82436683D01*
X148212046Y-82436612D01*
X148271803Y-82427221D01*
X148275273Y-82426741D01*
X149032567Y-82336195D01*
X149032919Y-82336155D01*
X149101282Y-82328749D01*
X149104703Y-82328441D01*
X149857520Y-82274599D01*
X149858453Y-82274538D01*
X149934450Y-82269976D01*
X149937912Y-82269831D01*
X150685336Y-82252039D01*
X150686224Y-82252023D01*
X150769461Y-82251025D01*
X150772927Y-82251045D01*
G37*
%TD.AperFunction*%
%TD*%
M02*
